<svg xmlns="http://www.w3.org/2000/svg" viewBox="0 0 80 80"><title>acompañante</title><g id="98761916-0608-4493-92ef-ddef6cb5b02d" data-name="Lineas"><path d="M29.16,37.78l9.67,9.66a1.27,1.27,0,0,0,1.65.15l.17-.15.06-.07a1.29,1.29,0,0,0-.07-1.74l-7.56-7.56L31,36a1.11,1.11,0,0,1,1.58-1.58L44.19,46a1.28,1.28,0,0,0,1.65.14L46,46l.08-.08A1.28,1.28,0,0,0,46,44.2h0l-7.56-7.56-4.07-4.07a1.12,1.12,0,0,1,0-1.55,1.13,1.13,0,0,1,1.6,0L40,35.08l4.43,4.43a1.3,1.3,0,0,0,1.66.15l.16-.15.07-.07a1.29,1.29,0,0,0-.07-1.74L32.91,24.31a1.13,1.13,0,0,1,0-1.57,1.11,1.11,0,0,1,1.57,0l2.79,2.79a3.73,3.73,0,0,0,3.84.2l-5.86-5.86C34,18.65,28.43,14.63,23.5,17.18a.85.85,0,0,1-1-.15L20.38,14.9l-9,9,3.23,3.23a.85.85,0,0,1,.25.6,6.45,6.45,0,0,0,1.55,4.12L32.31,47.72a1.29,1.29,0,0,0,1.82,0l.07-.08a1.29,1.29,0,0,0-.07-1.74l-6.54-6.54a1.11,1.11,0,0,1,0-1.58A1.13,1.13,0,0,1,29.16,37.78Zm-5-19.32-1.21.63a.43.43,0,0,1-.5-.08l-2.37-2.37a.42.42,0,0,1,.6-.6l2.15,2.15.94-.48c4.6-2.37,10,1.5,11.06,2.58a.42.42,0,1,1-.6.6C33.23,19.89,28.3,16.32,24.16,18.46Z" style="fill:#f0866a"/><path d="M65.52,56.23A6.33,6.33,0,0,0,64,52.13L48.09,36.24a1.28,1.28,0,0,0-1.19-.34l.59.59a2.94,2.94,0,0,1,.34.41l.09.14a2.94,2.94,0,0,1,.17.31l.07.17a3,3,0,0,1,.1.32c0,.06,0,.11,0,.17a3,3,0,0,1,0,.37s0,.09,0,.13a3,3,0,0,1,0,.5s0,.07,0,.1a3,3,0,0,1-.09.39l-.06.17c0,.06,0,.13-.07.19l4.74,4.74a1.11,1.11,0,0,1,0,1.57,1.15,1.15,0,0,1-1.6,0l-4.76-4.76a3,3,0,0,1-.68.18L47.2,43a2.93,2.93,0,0,1,.34.41l.08.12a2.94,2.94,0,0,1,.18.33l.07.16a3,3,0,0,1,.11.34l0,.16a3,3,0,0,1,.05.38s0,.08,0,.12a3,3,0,0,1,0,.51s0,.06,0,.09a3,3,0,0,1-.1.4l-.06.16c0,.07,0,.13-.07.2L49.42,48a1.11,1.11,0,0,1-1.58,1.58l-1.67-1.67L46,48l-.12,0a3,3,0,0,1-.44.08h0a3,3,0,0,1-.48,0l-.12,0L44.41,48l-.15,0-.31-.11-.15-.07-.3-.17-.13-.08a3,3,0,0,1-.38-.32l-.3-.3a3,3,0,0,1-.09.43s0,.1-.05.14-.06.18-.1.27v0L46,51.39A1.11,1.11,0,0,1,46,53a1.12,1.12,0,0,1-1.55,0l-3.66-3.66-.21.06-.14,0-.38.07H40a3,3,0,0,1-.46,0l-.17,0-.3-.05-.19-.05-.27-.1-.18-.08-.27-.16L38,49a3,3,0,0,1-.38-.32L36.18,47.2a3,3,0,0,1-.09.43c0,.05,0,.1-.05.15s-.06.18-.1.26v0L47.49,59.64a1.11,1.11,0,0,1-.78,1.9h0a1.11,1.11,0,0,1-.79-.33l-2.79-2.8a3.73,3.73,0,0,0-3.84-.19l5.86,5.86c1.22,1.22,6.79,5.25,11.75,2.69a.85.85,0,0,1,1,.15L60,69.06l9-9-3.24-3.24A.85.85,0,0,1,65.52,56.23Zm-5.2,11.68a.42.42,0,0,1-.6,0l-2.15-2.15-.94.48c-4.6,2.37-10-1.5-11.06-2.58a.42.42,0,0,1,.6-.6c1,1,5.93,4.57,10.07,2.43l1.21-.63a.43.43,0,0,1,.5.08l2.37,2.37A.42.42,0,0,1,60.32,67.91Z" style="fill:#1eabd3"/><path d="M70.61,57.49,67,53.89A8.05,8.05,0,0,0,65,49L49.09,33.06a3.06,3.06,0,0,0-3.67-.42l-6.77-6.77a4.85,4.85,0,0,0,4.13-1.46.85.85,0,0,0,0-1.2l-6.53-6.53C34.58,15,28.67,11,23.09,13.42l-2.3-2.3a.85.85,0,0,0-1.2,0L9.39,21.31a.85.85,0,0,0,0,1.2L13,26.1A8.07,8.07,0,0,0,15,31l15.9,15.9a3,3,0,0,0,3.68.42l6.75,6.75a4.84,4.84,0,0,0-4.12,1.47.85.85,0,0,0,0,1.2l6.53,6.53C45.42,65,51.3,69,56.92,66.58l2.3,2.3a.85.85,0,0,0,1.2,0L70.61,58.7A.85.85,0,0,0,70.61,57.49ZM32.11,45.74,16.22,29.86a6.46,6.46,0,0,1-1.55-4.12.85.85,0,0,0-.25-.6L11.2,21.91l9-9L22.31,15a.85.85,0,0,0,1,.15c4.94-2.55,10.53,1.48,11.75,2.69l5.86,5.86a3.73,3.73,0,0,1-3.84-.2l-2.79-2.79a1.11,1.11,0,0,0-1.57,0,1.12,1.12,0,0,0,0,1.58l12,12h0l1.33,1.33a1.29,1.29,0,0,1,.07,1.74l-.06.07-.17.15a1.29,1.29,0,0,1-1.66-.15L35.75,29a1.13,1.13,0,0,0-1.6,0,1.12,1.12,0,0,0,0,1.55l4.07,4.07h0l2,2,5.6,5.6h0A1.28,1.28,0,0,1,45.88,44l-.07.08-.17.14A1.28,1.28,0,0,1,44,44l-9.52-9.52h0l-2.12-2.12A1.11,1.11,0,1,0,30.78,34l9.66,9.66a1.29,1.29,0,0,1,.07,1.74l-.07.07-.16.15a1.27,1.27,0,0,1-1.65-.15L29,35.8a1.1,1.1,0,0,0-.78-.33h0a1.11,1.11,0,0,0-.78,1.9l6.54,6.54A1.29,1.29,0,0,1,34,45.66l-.07.08A1.32,1.32,0,0,1,32.11,45.74ZM59.82,67.08,57.69,65a.85.85,0,0,0-1-.15c-5,2.56-10.53-1.47-11.75-2.69l-5.86-5.86a3.73,3.73,0,0,1,3.84.2l2.79,2.8a1.12,1.12,0,0,0,1.57,0,1.12,1.12,0,0,0,0-1.58L35.72,46.1v0a2.94,2.94,0,0,0,.11-.29l0-.13a3,3,0,0,0,.09-.43l1.44,1.44a3,3,0,0,0,.38.32l.12.08.3.17.15.07.31.11.15,0,.36.06.12,0a3,3,0,0,0,.48,0h0a3,3,0,0,0,.43-.08l.14,0,.21-.06L44.27,51a1.11,1.11,0,0,0,1.55,0,1.11,1.11,0,0,0,0-1.57l-3.59-3.59v0a2.94,2.94,0,0,0,.11-.28l0-.13a3,3,0,0,0,.09-.43l.3.3a3,3,0,0,0,.38.32l.12.08.3.17.15.07.3.11.16,0,.35.06.12,0a3,3,0,0,0,.48,0h0a3,3,0,0,0,.43-.08l.13,0,.21-.07,1.67,1.67A1.11,1.11,0,0,0,49.22,46L47.6,44.4c0-.06,0-.13.07-.2l.06-.16a3,3,0,0,0,.1-.41l0-.09a3,3,0,0,0,0-.51s0-.08,0-.12a3,3,0,0,0-.05-.38c0-.06,0-.11,0-.16a3,3,0,0,0-.11-.33l-.07-.16a3,3,0,0,0-.18-.32l-.08-.13A2.93,2.93,0,0,0,47,41h0l-1.43-1.43a3,3,0,0,0,.68-.18L51,44.17a1.16,1.16,0,0,0,1.6,0,1.11,1.11,0,0,0,0-1.57l-4.74-4.74c0-.06,0-.13.07-.2l.06-.16a3,3,0,0,0,.1-.41l0-.08a3,3,0,0,0,0-.51s0-.08,0-.12a3,3,0,0,0,0-.38c0-.06,0-.11,0-.17a3,3,0,0,0-.1-.32l-.07-.17a3,3,0,0,0-.17-.31l-.08-.14a2.94,2.94,0,0,0-.34-.41l-.6-.6a1.3,1.3,0,0,1,1.19.34l15.9,15.89a6.44,6.44,0,0,1,1.54,4.11.85.85,0,0,0,.25.6l3.24,3.24Z" style="fill:#1d1d1b"/><path d="M57.75,63a.43.43,0,0,0-.5-.08L56,63.51C51.9,65.65,47,62.08,46,61.08a.42.42,0,1,0-.6.6c1.09,1.08,6.47,5,11.06,2.58l.94-.48,2.15,2.15a.42.42,0,0,0,.6-.6Z" style="fill:#1d1d1b"/><path d="M72.75,59.76a.85.85,0,0,0-1.2,0L61.36,70a.85.85,0,1,0,1.2,1.2L72.75,61A.85.85,0,0,0,72.75,59.76Z" style="fill:#1d1d1b"/><path d="M34,18.92a.42.42,0,1,0,.6-.6c-1.09-1.09-6.46-5-11.06-2.58l-.94.48-2.15-2.15a.42.42,0,0,0-.6.6L22.25,17a.42.42,0,0,0,.5.08L24,16.49C28.1,14.35,33,17.92,34,18.92Z" style="fill:#1d1d1b"/><path d="M18.64,8.85a.85.85,0,0,0-1.2,0L7.25,19a.85.85,0,1,0,1.2,1.2L18.64,10A.85.85,0,0,0,18.64,8.85Z" style="fill:#1d1d1b"/></g></svg>