<svg id="android" data-name="Layer 1" xmlns="http://www.w3.org/2000/svg" width="20" height="23.63" viewBox="0 0 20 23.63"><title>android</title><path d="M2.91,9.1V15.2A1.46,1.46,0,1,1,0,15.2V9.1a1.46,1.46,0,0,1,2.91,0ZM16.56,7.41H3.42A5.92,5.92,0,0,1,6.78,2.16L5.77.3A.21.21,0,0,1,5.84,0,.23.23,0,0,1,6.12.1L7.14,2a7.13,7.13,0,0,1,5.71,0l1-1.87A.23.23,0,0,1,14.16,0a.21.21,0,0,1,.07.28l-1,1.86A5.94,5.94,0,0,1,16.56,7.41Zm0,10A1.56,1.56,0,0,1,15,18.94H13.91v3.22a1.46,1.46,0,0,1-2.93,0V18.94H9v3.22a1.46,1.46,0,1,1-2.91,0V18.94H5a1.56,1.56,0,0,1-1.56-1.56V7.92h13Zm-9-12.9A.55.55,0,1,0,7,5,.55.55,0,0,0,7.56,4.48Zm6,0A.55.55,0,1,0,13,5,.55.55,0,0,0,13.54,4.48ZM20,15.2a1.46,1.46,0,1,1-2.91,0V9.1A1.46,1.46,0,0,1,20,9.1Z"/></svg>