<svg xmlns="http://www.w3.org/2000/svg" viewBox="0 0 80 80"><title>comparti-ubicacion-color</title><g id="dbae6fa4-df9e-4bb4-bc5b-d67bf2f93e98" data-name="Lineas"><path d="M19.77,46.4l-9.09-1.83-.18,0a.88.88,0,0,0-.88.88V62.24a.88.88,0,0,0,.88.88h7.11a.88.88,0,0,0,.87-.76l2-15A.88.88,0,0,0,19.77,46.4Zm-5.4,7.09a3.1,3.1,0,1,1,3.1-3.1A3.11,3.11,0,0,1,14.37,53.5Z" style="fill:#1eabd3"/><path d="M54.79,24.59a11.63,11.63,0,0,0-23.25,0c0,2.81,2.41,7.15,5,11.74,1.67,3,3.37,6.09,4.76,9.26,1.42-.21,2.79-.53,4.16-.79,1.32-2.89,2.87-5.73,4.4-8.47C52.37,31.73,54.79,27.39,54.79,24.59ZM43.16,29.35a4.76,4.76,0,1,1,4.76-4.76A4.77,4.77,0,0,1,43.16,29.35Zm0-12a.76.76,0,1,1,0-1.52,8.77,8.77,0,0,1,8.76,8.76.76.76,0,0,1-1.52,0A7.25,7.25,0,0,0,43.16,17.34Z" style="fill:#f0866a"/><path d="M49.65,58.91a8.28,8.28,0,0,1-4.22.88c-3,0-7.3-.8-12.84-2.4A.82.82,0,0,1,33,55.82c10.37,3,14.3,2.57,15.77,1.69a2.29,2.29,0,0,0,.31-.22.8.8,0,0,1,.21-.22,1.77,1.77,0,0,0,.38-.79c.31-1.47-1.94-2.93-6.18-4-2.41-.6-6.9-2.11-10.18-3.21l-2.87-1c-2-.66-6.51.38-8.6,1L20.35,60.68c7.61,4,17.38,8,22.51,8,1.55,0,4.51-.95,8-2.32l-.48-1.11a.82.82,0,1,1,1.5-.64l.49,1.14c2.33-1,4.83-2.08,7.25-3.21l-.45-1.05a.82.82,0,0,1,1.5-.64l.43,1c2.55-1.21,5-2.41,6.91-3.41a6.78,6.78,0,0,0-4.22-2.48c-2.84-.48-10.46,1.59-13.48,2.53A3.87,3.87,0,0,1,49.65,58.91Z" style="fill:#f0866a"/><path d="M71.22,57.49a8.31,8.31,0,0,0-5.85-4c-3-.51-9.52,1.21-12.71,2.12.37-2.46-2.12-4.38-7.41-5.7-2.34-.59-6.78-2.07-10-3.16l-2.93-1c-2.4-.78-6.78.22-8.89.79a2.51,2.51,0,0,0-2-2.56l-9.09-1.83a2.51,2.51,0,0,0-3,2.46V61.43a2.51,2.51,0,0,0,2.51,2.51h7.11a2.52,2.52,0,0,0,2.49-2.18l0-.18c7.22,3.74,17.12,7.86,22.74,7.86S70,59,70.87,58.58A.81.81,0,0,0,71.22,57.49ZM18.93,62.31H11.82a.88.88,0,0,1-.88-.88V44.62a.88.88,0,0,1,.88-.88l.18,0,9.09,1.83a.88.88,0,0,1,.7,1l-2,15A.88.88,0,0,1,18.93,62.31ZM62.39,61,62,60a.82.82,0,0,0-1.5.64l.45,1.06c-2.42,1.13-4.91,2.25-7.25,3.21l-.49-1.14a.82.82,0,0,0-1.5.64l.48,1.11c-3.47,1.38-6.43,2.32-8,2.32-5.12,0-14.9-4-22.51-8L23.2,48.3c2.09-.61,6.56-1.64,8.6-1l2.91,1c3.27,1.1,7.74,2.59,10.14,3.19,4.24,1.06,6.49,2.51,6.18,4a1.77,1.77,0,0,1-.38.79.8.8,0,0,0-.22.23,2.29,2.29,0,0,1-.31.22C48.65,57.58,44.72,58,34.35,55a.82.82,0,0,0-.45,1.57c5.54,1.6,9.79,2.4,12.84,2.4A8.28,8.28,0,0,0,51,58.09a3.87,3.87,0,0,0,.65-.49c3-.93,10.64-3,13.48-2.53a6.78,6.78,0,0,1,4.22,2.48C67.35,58.56,64.95,59.75,62.39,61Z"/><path d="M41.45,46a.76.76,0,1,0,1.4-.59,102.81,102.81,0,0,0-5-9.85c-2.56-4.59-5-8.94-5-11.74a11.63,11.63,0,1,1,23.25,0c0,2.81-2.41,7.15-5,11.74A100.35,100.35,0,0,0,46,45.59a.76.76,0,0,0,.41,1,.75.75,0,0,0,.29.06.76.76,0,0,0,.7-.47,99.38,99.38,0,0,1,5-9.92c2.77-5,5.16-9.28,5.16-12.48a13.14,13.14,0,1,0-26.28,0c0,3.2,2.39,7.5,5.16,12.48A101.61,101.61,0,0,1,41.45,46Z"/><path d="M51.72,23.77a.76.76,0,0,0,1.52,0A8.77,8.77,0,0,0,44.48,15a.76.76,0,1,0,0,1.52A7.25,7.25,0,0,1,51.72,23.77Z"/><path d="M39.72,23.77A4.76,4.76,0,1,0,44.48,19,4.77,4.77,0,0,0,39.72,23.77Zm4.76-3.25a3.24,3.24,0,1,1-3.24,3.25A3.25,3.25,0,0,1,44.48,20.53Z"/><path d="M15.69,46.48a3.1,3.1,0,1,0,3.1,3.1A3.11,3.11,0,0,0,15.69,46.48Zm0,4.57a1.47,1.47,0,1,1,1.47-1.47A1.47,1.47,0,0,1,15.69,51.05Z"/></g></svg>