<svg xmlns="http://www.w3.org/2000/svg" viewBox="0 0 80 80"><title>dias-de-las-semanas</title><g id="7aa8f01f-852e-4e54-8414-1ca8fb194335" data-name="Lineas"><path d="M67.24,38.06a.76.76,0,0,0-.76.76V54.3A13.94,13.94,0,0,1,52.55,68.22H41.66a.76.76,0,0,0,0,1.52H52.55A15.46,15.46,0,0,0,68,54.3V38.83A.76.76,0,0,0,67.24,38.06Z"/><path d="M24.45,32.11h-6.6a.76.76,0,0,0-.76.76v6.6a.76.76,0,0,0,.76.76h4a.76.76,0,1,0,0-1.52H18.62V33.63h5.08V37a.76.76,0,0,0,1.52,0V32.87A.76.76,0,0,0,24.45,32.11Z"/><polygon points="36.44 37.04 36.44 32.87 29.84 32.87 29.84 39.47 36.44 39.47 36.44 37.04"/><polygon points="48.42 37.04 48.42 32.87 41.82 32.87 41.82 39.47 48.42 39.47 48.42 37.04"/><polygon points="24.45 46.62 24.45 42.46 17.85 42.46 17.85 49.06 24.45 49.06 24.45 46.62"/><polygon points="36.44 46.62 36.44 42.46 29.84 42.46 29.84 49.06 36.44 49.06 36.44 46.62"/><polygon points="48.42 46.62 48.42 42.46 41.82 42.46 41.82 49.06 48.42 49.06 48.42 46.62"/><path d="M24.45,51.28h-6.6a.76.76,0,0,0-.76.76v6.6a.76.76,0,0,0,.76.76h4a.76.76,0,0,0,0-1.52H18.62V52.8h5.08v3.4a.76.76,0,1,0,1.52,0V52A.76.76,0,0,0,24.45,51.28Z"/><path d="M36.44,51.28h-6.6a.76.76,0,0,0-.76.76v6.6a.76.76,0,0,0,.76.76h4a.76.76,0,0,0,0-1.52H30.6V52.8h5.08v3.4a.76.76,0,1,0,1.52,0V52A.76.76,0,0,0,36.44,51.28Z"/><path d="M48.42,51.28h-6.6a.76.76,0,0,0-.76.76v6.6a.76.76,0,0,0,.76.76h4a.76.76,0,1,0,0-1.52H42.59V52.8h5.08v3.4a.76.76,0,1,0,1.52,0V52A.76.76,0,0,0,48.42,51.28Z"/><polygon points="60.41 37.04 60.41 32.87 53.81 32.87 53.81 39.47 60.41 39.47 60.41 37.04"/><path d="M53.81,49.82h4a.76.76,0,0,0,0-1.52H54.57V43.22h5.08v3.4a.76.76,0,0,0,1.52,0V42.46a.76.76,0,0,0-.76-.76h-6.6a.76.76,0,0,0-.76.76v6.6A.76.76,0,0,0,53.81,49.82Z"/><path d="M53.81,59.4h4a.76.76,0,0,0,0-1.52H54.57V52.8h5.08v3.4a.76.76,0,1,0,1.52,0V52a.76.76,0,0,0-.76-.76h-6.6A.76.76,0,0,0,53,52v6.6A.76.76,0,0,0,53.81,59.4Z"/><path d="M26.3,22.74a3.45,3.45,0,1,0,.34-1.55,5.07,5.07,0,1,1,6-8.1.76.76,0,1,0,1-1.13A6.59,6.59,0,1,0,26.3,22.74Zm3.43-2a1.91,1.91,0,1,1-1.8,2.54,6.6,6.6,0,0,0,1.31.13.76.76,0,1,0,0-1.52,5.05,5.05,0,0,1-1.19-.15A1.9,1.9,0,0,1,29.72,20.77Z"/><path d="M43.58,22.13a3.44,3.44,0,1,0,.61-1.46,5.07,5.07,0,1,1,6.74-7.57A.76.76,0,0,0,52,12a6.59,6.59,0,1,0-8.37,10.16ZM47,20.77A1.91,1.91,0,1,1,45.08,23a6.55,6.55,0,0,0,2.44.47.76.76,0,0,0,0-1.52,5,5,0,0,1-2-.43A1.9,1.9,0,0,1,47,20.77Z"/><path d="M26.48,14.51a.76.76,0,0,0,.76.76H39.88a.76.76,0,1,0,0-1.52H27.24A.76.76,0,0,0,26.48,14.51Z"/><path d="M64.68,54.3V25.88A12.14,12.14,0,0,0,52.55,13.75H46.19a.76.76,0,1,0,0,1.52h6.37A10.62,10.62,0,0,1,63.16,25.88v3H13.52v-3A10.63,10.63,0,0,1,22,15.48a.76.76,0,1,0-.3-1.49A12.16,12.16,0,0,0,12,25.88V54.3A12.14,12.14,0,0,0,24.13,66.43H52.55A12.14,12.14,0,0,0,64.68,54.3Zm-51.16,0V30.43H63.16V54.3A10.62,10.62,0,0,1,52.55,64.91H24.13A10.62,10.62,0,0,1,13.52,54.3Z"/></g></svg>