<svg xmlns="http://www.w3.org/2000/svg" viewBox="0 0 80 80"><title>free</title><g id="d2a3d57f-8722-4bdf-9b9e-330bcc05c266" data-name="Lineas"><path d="M68.72,51.94a6.24,6.24,0,0,0-1.91-4.09L43.07,24.68c-5.73-5.59-14.51-5.92-19.58-.73a12,12,0,0,0-2.74,4.39.83.83,0,0,1-.31.39c-.15.75-.26,1.51-.35,2.28a7.16,7.16,0,0,0,1.13.54,4.15,4.15,0,0,0,3.5-.33A4.85,4.85,0,0,0,27.14,28h0a4.32,4.32,0,0,0,.06-.46.85.85,0,1,1,1.69.14,6,6,0,0,1-.09.64h0a6.56,6.56,0,0,1-3.27,4.43,6.13,6.13,0,0,1-3,.79,5.44,5.44,0,0,1-2-.36c-.25-.1-.47-.2-.69-.3,0,.45-.06.9-.08,1.34a.84.84,0,0,1,.32.55,15.45,15.45,0,0,0,4.54,8.78L48.42,66.68a6.24,6.24,0,0,0,4.14,1.81A5,5,0,0,0,56.4,67L67.32,55.81A5,5,0,0,0,68.72,51.94ZM28.84,29.85a2.27,2.27,0,0,0,.52-.4,2.25,2.25,0,0,0-1.61-3.82h0a2.24,2.24,0,0,0-1.58.68,2.27,2.27,0,0,0-.5,2.35.85.85,0,0,1-1.59.59,3.95,3.95,0,0,1,6.46-4.2,3.95,3.95,0,0,1,.07,5.58,4,4,0,0,1-.9.69.85.85,0,0,1-.83-1.48Zm-.72,8.41L26.9,37.07l9.4-9.63,5.62,5.48-1.19,1.22-4.4-4.3L33.6,32.64,36,35,34.82,36.2l-2.4-2.34Zm13.17,7.43A10.15,10.15,0,0,1,39.14,49l-1.22-1.19a8.55,8.55,0,0,0,1.74-2.66,1.62,1.62,0,0,0-.32-1.61l.07-.07a11.79,11.79,0,0,1-1.49-1.25l-2.8,2.87-1.22-1.19,9.33-9.56.6.47c.12.09,2.9,2.29,3.09,5.09a4.56,4.56,0,0,1-1.43,3.58,3.81,3.81,0,0,1-3,1.23,4.48,4.48,0,0,1-1.1-.21A3.42,3.42,0,0,1,41.29,45.69Zm6.15,10.66-5.62-5.48,9-9.23,5.62,5.48-1.19,1.22L50.86,44l-2.73,2.79,3.4,3.32-1.19,1.22L46.95,48l-2.73,2.79,4.4,4.3Zm14.84-1.17-4.4-4.3-2.73,2.79L58.55,57l-1.19,1.22L54,54.89l-2.73,2.79,4.4,4.3-1.19,1.22-5.62-5.48,9-9.23L63.47,54Z" style="fill:#1eabd3"/><path d="M37.85,41.6a6.26,6.26,0,0,0,3.51,2A2.08,2.08,0,0,0,43,42.89a2.9,2.9,0,0,0,1-2.28,5.83,5.83,0,0,0-1.88-3.36Z" style="fill:#1eabd3"/><path d="M70,49.92a7.94,7.94,0,0,0-2.42-5.21L43.83,21.55a16.89,16.89,0,0,0-11.2-4.89,14.17,14.17,0,0,0-10.77,4.2,13.7,13.7,0,0,0-3.12,5,.85.85,0,1,0,1.6.57A12,12,0,0,1,23.07,22a12.44,12.44,0,0,1,9.5-3.69,15.2,15.2,0,0,1,10.08,4.41L66.38,45.93A6.24,6.24,0,0,1,68.29,50,5,5,0,0,1,66.9,53.9L56,65.09a5.05,5.05,0,0,1-3.84,1.49A6.24,6.24,0,0,1,48,64.76L24.27,41.59a15.45,15.45,0,0,1-4.54-8.78.85.85,0,1,0-1.68.24,17.16,17.16,0,0,0,5,9.75L46.81,66a7.93,7.93,0,0,0,5.26,2.3h.26a6.7,6.7,0,0,0,4.86-2L68.11,55.08A6.72,6.72,0,0,0,70,49.92Z"/><polygon points="26.48 35.16 27.7 36.34 31.99 31.94 34.39 34.28 35.58 33.07 33.18 30.73 35.91 27.93 40.31 32.23 41.49 31.01 35.88 25.53 26.48 35.16"/><polygon points="41.4 48.95 47.02 54.43 48.2 53.22 43.8 48.92 46.53 46.12 49.93 49.44 51.11 48.23 47.71 44.91 50.44 42.11 54.84 46.41 56.03 45.2 50.41 39.71 41.4 48.95"/><polygon points="61.86 53.26 63.04 52.04 57.42 46.56 48.41 55.79 54.03 61.28 55.22 60.06 50.81 55.76 53.54 52.97 56.94 56.29 58.13 55.08 54.73 51.76 57.45 48.96 61.86 53.26"/><path d="M43.43,32.91l-.6-.47L33.5,42l1.22,1.19,2.8-2.87A11.78,11.78,0,0,0,39,41.57l-.07.07a1.62,1.62,0,0,1,.32,1.61,8.56,8.56,0,0,1-1.74,2.66l1.22,1.18a10.16,10.16,0,0,0,2.14-3.33A3.42,3.42,0,0,0,41,42.6a4.48,4.48,0,0,0,1.1.21,3.8,3.8,0,0,0,3-1.23A4.56,4.56,0,0,0,46.52,38C46.33,35.2,43.55,33,43.43,32.91Zm.45,7.48a2.07,2.07,0,0,1-1.67.72,6.26,6.26,0,0,1-3.51-2l4.25-4.36a5.91,5.91,0,0,1,1.88,3.36A2.9,2.9,0,0,1,43.88,40.39Z"/><path d="M27.27,22a3.92,3.92,0,0,0-2.78,1.19,4,4,0,0,0-.88,4.13.85.85,0,1,0,1.59-.59,2.26,2.26,0,0,1,.5-2.35,2.24,2.24,0,0,1,1.58-.68,2.27,2.27,0,0,1,1.6.64,2.25,2.25,0,0,1-.48,3.58.85.85,0,1,0,.83,1.48,3.95,3.95,0,0,0,.84-6.27A3.94,3.94,0,0,0,27.27,22Z"/><path d="M22.15,31.59a6.13,6.13,0,0,0,3-.79,6.56,6.56,0,0,0,3.27-4.43h0a6,6,0,0,0,.09-.64.85.85,0,1,0-1.69-.14,4.32,4.32,0,0,1-.06.46h0a4.85,4.85,0,0,1-2.42,3.27,4.15,4.15,0,0,1-3.5.33c-2.46-.95-2.7-2.14-3-3.8a7.47,7.47,0,0,0-2.11-4.4c-2.09-2-4.22-5-3.93-7.06a2.51,2.51,0,0,1,1.44-1.89c1.94-1.08,5.53,1,9.14,5.21a.85.85,0,1,0,1.29-1.1C21.53,14.19,16.31,8.81,12.34,11A4.21,4.21,0,0,0,10,14.16c-.46,3.42,3.28,7.37,4.43,8.5a5.9,5.9,0,0,1,1.63,3.52,5.72,5.72,0,0,0,4.08,5.05A5.44,5.44,0,0,0,22.15,31.59Z"/></g></svg>