<svg xmlns="http://www.w3.org/2000/svg" viewBox="0 0 80 80"><title>horario</title><g id="598aa56b-5d4d-4c62-9f2e-1506ce46f527" data-name="Lineas"><path d="M40,10A30,30,0,1,0,70,40,30,30,0,0,0,40,10Zm0,58.33A28.33,28.33,0,1,1,68.33,40,28.37,28.37,0,0,1,40,68.33Z"/><path d="M48.19,15.75a.83.83,0,0,0-.53,1.58,23.93,23.93,0,0,1,0,45.34.83.83,0,1,0,.53,1.58,25.6,25.6,0,0,0,0-48.5Z"/><path d="M39.22,40.27a1.19,1.19,0,0,0,.16.27.81.81,0,0,0,.13.11l.08.07,15.84,9a.83.83,0,0,0,.82-1.45L40.83,39.51V26.86a.83.83,0,0,0-1.67,0V40a.78.78,0,0,0,0,.1A.81.81,0,0,0,39.22,40.27Z"/><path d="M40,21.57a.83.83,0,0,0,.83-.83V15.51a.83.83,0,1,0-1.67,0v5.22A.83.83,0,0,0,40,21.57Z"/><path d="M28.48,18.38a.83.83,0,0,0-1.44.83l2.61,4.52a.83.83,0,0,0,1.44-.83Z"/><path d="M23.73,29.65,19.21,27a.83.83,0,1,0-.83,1.44l4.52,2.61a.83.83,0,1,0,.83-1.44Z"/><path d="M21.57,40a.83.83,0,0,0-.83-.83H15.51a.83.83,0,1,0,0,1.67h5.22A.83.83,0,0,0,21.57,40Z"/><path d="M22.9,48.91l-4.52,2.61A.83.83,0,0,0,19.21,53l4.52-2.61a.83.83,0,1,0-.83-1.44Z"/><path d="M30.78,56a.83.83,0,0,0-1.14.31L27,60.79a.83.83,0,0,0,1.44.83l2.61-4.52A.83.83,0,0,0,30.78,56Z"/><path d="M40,58.43a.83.83,0,0,0-.83.83v5.22a.83.83,0,1,0,1.67,0V59.26A.83.83,0,0,0,40,58.43Z"/></g></svg>