<svg xmlns="http://www.w3.org/2000/svg" viewBox="0 0 80 80"><title>integrantes</title><g id="145ed23c-0b45-4afd-8994-137b549514cc" data-name="Lineas"><path d="M56.09,41.88a2.5,2.5,0,0,1,0-3.63c5.48-1.88,7.53-9,7.53-13.06,0-8-5.64-14-13.12-14a12.74,12.74,0,0,0-11.92,8A12.63,12.63,0,0,0,28.08,27c-6.81.71-11.7,6.45-11.7,13.9,0,4.06,2,11.17,7.53,13.06a2.17,2.17,0,0,1,.78,2,2,2,0,0,1-.77,1.66l-.31.1C20.88,58.67,12,62.25,12,68.94a.88.88,0,0,0,1.75,0c0-5.67,8.68-9,10.42-9.55l.34-.11.13-.05A3.59,3.59,0,0,0,26.43,56a3.76,3.76,0,0,0-1.79-3.64l-.11,0c-4.84-1.61-6.4-8.39-6.4-11.42,0-6.68,4.45-11.81,10.59-12.21H29l.55,0C36,28.69,40.88,34,40.88,40.94a15.27,15.27,0,0,1-.39,3.19c-.45,2-1.94,6.87-6,8.23l-.11,0a4.13,4.13,0,0,0,0,6.81l.13.05c.11,0,10.76,3.38,10.76,9.66a.88.88,0,0,0,1.75,0C47,61.63,36.24,58,35.09,57.63a2.5,2.5,0,0,1,0-3.63c4.87-1.67,6.58-7.18,7.1-9.48a17.07,17.07,0,0,0,.43-3.57c0-7.79-5.38-13.69-12.58-14a10.88,10.88,0,0,1,9.18-6.11h.23l.55,0c6.48,0,11.38,5.27,11.38,12.25,0,3-1.57,9.81-6.4,11.42l-.11,0a3.68,3.68,0,0,0-1.8,3.41,3.68,3.68,0,0,0,1.8,3.41l.13.05c.11,0,10.76,3.38,10.76,9.66a.88.88,0,0,0,1.75,0c0-7.31-10.76-10.95-11.91-11.31a2.5,2.5,0,0,1,0-3.63c5.48-1.88,7.53-9,7.53-13.06,0-7.78-5.37-13.69-12.58-14a11,11,0,0,1,10-6.15c6.48,0,11.38,5.27,11.38,12.25,0,3-1.57,9.81-6.4,11.42l-.11,0a3.68,3.68,0,0,0-1.8,3.41,3.68,3.68,0,0,0,1.8,3.41l.13.05c.11,0,10.76,3.38,10.76,9.66a.88.88,0,0,0,1.75,0C68,45.88,57.24,42.24,56.09,41.88Z"/></g></svg>