<svg id="52adad44-c6c7-4b9f-a9f8-b078af824e85" data-name="Layer 1" xmlns="http://www.w3.org/2000/svg" viewBox="0 0 23.21 23.21"><title>Item</title><path d="M8.72,9.56a4.08,4.08,0,0,1,4.79-2.31,4.47,4.47,0,0,1,3,5.42,4.35,4.35,0,0,1-2.08,2.78l0,0c-1.35,1-5.6.57-7.24.38a.54.54,0,0,1-.4-.26.61.61,0,0,1-.06-.5A30.65,30.65,0,0,1,8.72,9.56Z" style="fill:#68c1da;fill-rule:evenodd"/><path d="M11.6,23.21a11.6,11.6,0,1,1,11.6-11.6A11.62,11.62,0,0,1,11.6,23.21ZM11.6,2a9.6,9.6,0,1,0,9.6,9.6A9.62,9.62,0,0,0,11.6,2Z" style="fill:#999"/></svg>