<svg xmlns="http://www.w3.org/2000/svg" xmlns:xlink="http://www.w3.org/1999/xlink" viewBox="0 0 80 80"><defs><style>.cls-1,.cls-5{fill:none;}.cls-2{clip-path:url(#clip-path);}.cls-3{fill:#d1d1d1;}.cls-4{fill:#fff;}.cls-5,.cls-9{stroke:#1d1d1b;stroke-miterlimit:10;stroke-width:1.5px;}.cls-6{fill:#ffec5d;}.cls-7{fill:#9cb4de;}.cls-8{clip-path:url(#clip-path-2);}.cls-9{fill:#aed4a3;}.cls-10{fill:#1d1d1b;}</style><clipPath id="clip-path"><polygon class="cls-1" points="73.88 29.76 51.21 24.42 28.55 29.76 5.89 23.09 5.89 63.08 28.55 69.75 51.21 64.42 73.88 69.75 73.88 29.76"/></clipPath><clipPath id="clip-path-2"><polygon class="cls-1" points="56.81 38.59 42.63 38.59 39.59 42.77 36.55 38.59 22.36 38.59 22.36 15.41 56.81 15.41 56.81 38.59"/></clipPath></defs><title>map</title><g id="Lineas"><g class="cls-2"><rect class="cls-3" x="-41.12" y="-61.39" width="189.14" height="189.14"/><path class="cls-4" d="M109.15,119.48l12.57,2.45-.51,2.86h2.29L129,93.54l1.27,31.25h2.26l-.42-10.54,5.75-.17.59,10.71h1.12L139,114.07l8.61-.23v-2.24l-7.09.19-.55-3.79,7.64.23v-1.12l-7.81-.23-1.06-7.34,4.61-5.08,4.23,2.69V95.79l-3.47-2.2,3.47-3.83V88.08l-9.08,10c-.49-2.77-1.69-9.84-2.2-12.82l11.3,1.93V84.93l-5.63-1,1.33-8.4,4.3.89v-2.3l-3.21-.66,3.21-4.08V65.74L141.9,73l-7.34-1.52,3.13-22,9.86,1.78V47.46l-1-.19,1-7.09V24.74l-1.14,7.83L135.92,30c.53-2.77,1.93-10.11,2.45-12.91l9.18,1.74V16.57l-5.92-1.12L146.31-10l1.25.23V-13.6l-3.07-.57.83-5.73,2.24-.47v-1.14l-2.07.42,1.82-12.65.25,0V-62l-.68,4.68-7,.42-.32-6h-1.12l.34,6.11-6,.36-.27-6.47h-2.26l.27,6.62-8.27.51,1.25-7.13h-2.29L120-56l-12.48-3.32.66-3.6h-3.81L103.1-56l-8.59,1.46L93.45-62.9H91.19l1.08,8.72-8.4,1.42-3.6-7.34L89.9-62.9H81.83l-2.56.74-.38-.74H74.7l.87,1.78-4.8,1.33c-.27-.76-.66-1.88-1.1-3.13H68.48l1.21,3.43c-2.09.57-4,1.1-4.7,1.31l-5.42-1.69.36-3H58.79l-.3,2.69-6.92-2.13.19-.55H49.38l-.91,2.47L42.54-62.9H40.47l-1.84,4.72-8.48-2.94q.54-.89,1-1.78H28.54a46.81,46.81,0,0,1-4.13,6.11l-1-6.11H21.11l.27,1.69-5.65,3.36-3-5.06H11.44l7,11.87c-.17.11-.34.23-.49.34a27.56,27.56,0,0,1-8.5,3.34L10.57-62.9H9.45L8.31-47.08c-1.23.27-2.5.49-3.81.7L3.27-62.9H1l.4,5.59L-12.11-59l-.08-3.94h-2.26l.08,3.68-3.11-.38-3.34-3.3h-1.61l3.13,3.07-11.38-1.38.21-1.69h-1.14l-.19,1.54-4.53-.55.15-1H-40l-.13.93V-33.7l9.73,1.78,1.67,8-11.4,2.37v1.14l3.41-.72,1.1,8.34-4.51-.85v3.83l5,.93-3.77,25.58-1.18-.21v2.29l.85.17-.85,5.75V40.18l3.07-20.78,10.6,2-2.81,28-10.86-1.94v3.81l10,1.78-10,12.69v3.64l9.88-12.61-2.71,18.85-7.17-1.48v2.31l6.86,1.42-1.14,8-5.71-1v2.29l.68.13-.68.72v1.67l2-2.2,3.41.59-1.46,10.16-3.94-2.5v1.33l3.77,2.39-1.1,7.66-2.67-.08v1.12l2.5.08-.47,3.21-2,.07v2.24l1.71,0-1.59,11h3.79l1.54-10.83,4.3.57-1.27,10.26h1.14l.87-7,7.19,7h1.61l-8.61-8.44.21-1.67,14.58,1.95.19,8.17h2.26l-.19-7.87L.57,118.64,1,124.77H3.27L3,121.62l6.73-1.14-.32,4.32h1.12l.08-1.29.76,1.29h1.31l-1.93-3.28.08-1.23,9.2-1.57,1,6.07h2.29l-3.17-19,16,1.23a96,96,0,0,1-7.72,17.82h2.62a84,84,0,0,0,3.7-7.62L42.31,120l-1.86,4.76h2.07l-.74-.32,3.75-9.59,6.86,1.61-3,8.27h2.39l5.71-15.7,3.11-.38-1.8,16.1h1.14l.72-6.43,5.1-1.4,2.75,7.83h1.18c-1.06-3-2.37-6.73-2.86-8.12l3.43-.93,4.44,9.06h4.19L77,120.9l14.94-4.63-.83,5.84-9.27,2.67H89.9l1.25-.36,0,.36h2.26l-.13-1c4.59-1.33,9.12-2.64,11.83-3.45l-.83,4.44h3.81Zm-2-9.73-11.77-1.61,1.18-8.32,12,2.05ZM82,95.07l.8-4.57,12.5,2.35-.63,4.38Zm12.36,4.38L93.81,103l-8.27-1.18.83-3.7ZM52.57,95,47,94.86l.85-4.78,4.7,2.26a8.9,8.9,0,0,0-.11,1.31A5.76,5.76,0,0,0,52.57,95Zm1.71,3.81a7.52,7.52,0,0,0,1,1L51,105.39,47,98.6ZM54,88.87,43.3,83.73l11.62-4.25,1.76,7A8.28,8.28,0,0,0,54,88.87ZM-20.13,77l1.38-3.09,17.09-4.08-2.43,8.53Zm15.49,3.58-1.14,5.86L-10,85.33l.3-5.22ZM-28.44-43.63c3.79.27,8.21.53,12.82.59l0,1.12L-29-37.79Zm-4.61-2.67,1.27-7.13,12.25,1.54c-.13,1.33-.47,4.68-.63,6.43C-25.08-45.64-29.57-46-33.06-46.29ZM-4-31.27l1.46,13-17,2,1.57-13.6Zm-11.72-9.44-.36,8.34-2.83.27-2.62-.49-.76-6.09ZM-2.44-17.18l.53,4.68-18.32,2.25.57-4.93Zm77.19-.91-2.07,7.34-8.55,3.3c-1.25-3.49-2.24-6.92-2.79-9ZM63-25.18l6.56-.8.72,4.66-6.75.83Zm32.6,47.76-7.93-1.86,4-12.38,6.81,1.27c-.48,2.28-1.69,7.81-2.83,13Zm4-12.78,8.38,1.57L97,21.61ZM24.73,12.38l13-1.23,1.42,5.63-15.53.47Zm0-9.8L36.59,6.73l.55,2.2L25.7,10Zm59,18.11-2.11,6.62-9.25-3.66,2.48-6.2Zm-8.48-4.27,2.14-5.37c3.17,1.82,6.26,3.43,8,4.32l-1.35,4.25ZM69.2,25.54l-4.34-3.68,5.22-7.4,2.73,2Zm-.44,1.1-.21.53-10.92.93-5.48-7.3,5.44-3.66Zm-12.23,1.9L47.3,33.86,45.19,25.5l6-4c1,1.33,4.21,5.6,5.31,7.08Zm-5.08-8.63-2-2.52L54,14.11l2.67,2.26Zm-.93.63-5.63,3.79-.78-3.07,4.44-3.19ZM44.44,37.86l-9.92-2.94L42,28.08ZM33.25,34.54l-12.8-3.81,2.88-12.36,16.08-.47,2.26,8.95ZM19.33,10.63,17.57-4.25l5-.74,2,15.11Zm-.11,2.26,4.32-.4-2.07,8.9L17.19,20Zm2,9.61-1.84,7.91L14.66,29l2.24-7.89ZM20,32.95,13.89,49.54,9.36,47.65,14,31.17Zm1.08.32L26.93,35l-2.52,7.53c-1.67-.51-4.78-1.48-6.05-1.88Zm5.12,11,5.48,1.93L28,54.72l-5-.59Zm.34-1.08,2.54-7.6,8.7,2.58-2.09,8.21Zm12.31-4.68,6.22,1.86,2.58,10.22L36.72,46.81ZM47.58,35l4.8-2.77,2.35,8.38L48.59,39Zm5.82-3.36,4.15-2.39,10.56-.91-5.67,14.2L56,40.9Zm14,4.63L72.42,38,70.6,44.67l-6-1.52Zm.4-1.06L72,24.72l9.31,3.68L78,38.62Zm13.9,4.23,9.44,1.69-7.91,13.2-4.87-4.42Zm1.16-3.6,4.51-14.07,8,1.9c-.8,3.7-1.54,7-1.88,8.65l-7,4.17ZM96.35,24.51l3.36,4.1-4.89,2.9ZM86.13,13.21C82.38,11.3,73.88,6.82,70,3.45a6.49,6.49,0,0,1-.55-.53l9.06-7.77L88.62,5.42ZM72.48-2.66l-3-5.68L73-9.69l3.83,3.26Zm-.89.76-3.53,3a40.07,40.07,0,0,1-3.55-7.51l4-1.52ZM68.5,5.17a50.61,50.61,0,0,0,6.92,4.74l-2.16,5.44L62.83,7.79l4.82-3.47a10.64,10.64,0,0,0,.85.84Zm.68,8.61L64,21.12l-9-7.66,6.9-5ZM55.43,10.35l-2-6.69,5-2.39,2.09,5.44ZM53.08,2.56,51.47-2.77,55-7.57,58,.19Zm.42,9.16-10,7.17L39.94,4.62,50.75,2.55ZM39.65,3.54,35.41-13.29l10.18-1.25,4.82,16ZM36.26,5.42,24.56,1.34l-.85-6.5,9.52-1.42ZM17.45-5.37,16.77-11l14.87-1.82L33-7.66ZM16.12-14.7,15-19.57l15.89.74.59,2.24Zm.8,24.06L6.24-2.92,5.79-9.65l8.74-1.08ZM5.37-13.39l-.76-4.82,8.1-1.25,1.18,5Zm-.7,3.87.42,6.33L.35-2.73.52-9Zm.78,7.4,11.3,13L0,12.44.31-1.63c1.53-.13,4.25-.4,5.14-.49ZM16.81,13.12,7.55,45.72,3,43.16,12.67,13.5ZM8.73,49.83l11.59,4.85L19,58.55,7.72,53.36Zm6.18.15,3-8.25L24,43.61l-3,8.93Zm7.62,5.2,5.12.61-1.16,7.6L21,59.67Zm6.31.27,3.89-8.87L42.33,50,38.93,67.33,34.61,69,27.5,64.09ZM46,67l1.9,6.83-8,3.34L36.2,70.77Zm-5.8-.19,3.24-16.52L48,51.92,50.75,62.8Zm9.06-25.33,12.53,3.19L58.52,49,51.6,51ZM63,45l11.83,3L61.61,54.76l-2.09-5.18Zm8.72-.11,1.8-6.62,4.17,1.4-2,6.24Zm6.26,6.18,10.58,9.59-.78,1.5c-5.35-1-10.05-1.93-12.57-2.41Zm6.09,4,8.25-13.75,5.71,1L89,59.65ZM99.19,42.57l1.82.34L97.45,64,88.88,62.4Zm.63,14.24L109.08,59l-1.12,7-9.39-1.8Zm1.4,10.26,6.28,1.21L104.7,79.92l-5.18-1.06Zm7.4,1.42,5.88,1.12-2.18,11.83-6.5-1.31Zm.44-2.2,1.12-7.09,6.14.49-1.42,7.72c-1.37-.27-3.4-.66-5.84-1.12Zm1.29-8.21.76-4.74,6.22.87-.8,4.38Zm.93-5.86L112.43,45l6.37,1.14-1.29,7Zm-2,5.69L100,55.71l2.12-12.59,9.23,1.65ZM89.85,37.09l11.3-6.71,8.36,10.24Zm12.27-7.3,14.68-8.74,3.28,4-14.7,8.7ZM100.68,28,96.81,23.3l12.38-11.53,6.18,7.55Zm8.95-24.57-8.8-1.16c.27-1.67.53-3.21.66-4L110.19,0Zm-.17,1.12-.74,4.63L100,7.58c.17-1,.42-2.58.68-4.17ZM98.86,7.39,92.33,6.16,95.25-3l5.14,1ZM89.41,3,80.19-6.32l7.22-6.2,6,3.07ZM77.71-7.17l-4-3.36,2.18-7.7,13.46-1.65a8.22,8.22,0,0,0,.83,2ZM72.52-21.6,70.74-33l7.64-1.18,1.81,11.7ZM66.3,2.52,61.46,6,55.81-8.63l3.87-5.25C61-9.35,63.36-1.95,66.3,2.52ZM51.07-4.1,47.85-14.79l11.21-1.38c.06.27.15.57.23.89ZM49.29-18.77l-3.62.44L39.52-28.2l9.8-1.52Zm-4.85.59L35.05-17l3.72-10.24Zm-11.19-.49-5-19.44L39-34.32ZM30.58-20l-8.74-.4L19.52-33.51l7.38-.7Zm-9.9-.47-6-.27L11.9-32.79l6.47-.61Zm-8.23-.12-8,1.23-.76-4.82,7.72-1ZM4.25-13.24l-3.91.49L-.2-17.47,3.48-18Zm-4.36,28,11.55-1.1-5.88,18L-.49,29.18Zm5.33,18L1.94,42.81l-2.75-.44.32-12ZM1.58,43.88-1.06,52l.21-8.53,2.43.4Zm1.06.38,4.59,2.58L2.36,64l-3.7-1.78L-1.17,56Zm4.78,10.2,11.26,5.16L15.16,70.14,4.44,65Zm13.24,6.31,12.67,8.7L22.42,73.63,17.2,71.11Zm1.42,16.86,10,4.82-2.6,4.87L20.6,85.4ZM25.21,75l9.92-3.79,3.68,6.45-4.34,1.8Zm23,0,1.46,5.25L41.91,83l-6.07-2.94ZM47,66.63,51.28,65l3.36,13.35-4,1.44ZM51.89,52l6.64-1.88,6.37,15.72-8.82,2.75ZM62,55.79l12.5-6.37-6.66,20.8Zm12.44,6.14L85.18,64,83.12,75.56,70.9,73.08ZM84.94,78.22,97,80.66l-.93,6.58-11.66-6ZM85.33,76l2.05-11.59L99,66.65,97.32,78.43Zm13.9,5.1,12.7,2.56-1.25,6.81L98.23,88Zm14.13,15.4,5.44.7-1.69,8.65-5.35-.68Zm.21-1.1,2.5-13.58,5.56,1L119,96.1Zm2.9-15.81,1.69-9.25c1.76.36,4.66,1,8.08,1.67l-2,8.89Zm2.12-11.45,2.09-11.43,13.44,1.88L132.34,71Zm1.67-25.6-9.06-1.63-5.12-6.26L120.79,26,123,28.63Zm4.8-12.86,9.33,2.26c-.53,2.62-1.86,9.41-2.52,12.7L122.48,43Zm-1.52-3.94-11-13.52,13.2,2.48ZM110.93,9.65l2.22-13.84L128.91-1.9,126.1,12.5Zm8.46-15.21,1.29-9.25L131-12.86l-1.71,8.74Zm.76-13.18-4.25-.8,1.35-7.66,4.3.47ZM119.58-15c-.36,2.58-1,7.17-1.29,9.29l-4.76-.7,1.52-9.46Zm-5.9-4.93-8.12-1.52c0-.17,0-.32,0-.49a8.5,8.5,0,0,0-.68-3.28l7.66-4.61,2.09,4.51Zm-.87,3.66L110.38-1.08,95.61-4l3.15-9.84a8.22,8.22,0,0,0,5.69-4ZM97.34-17.52A4.46,4.46,0,0,1,92.88-22a4.46,4.46,0,0,1,4.46-4.46A4.46,4.46,0,0,1,101.81-22h0A4.47,4.47,0,0,1,97.34-17.52Zm-2.45,3.39-1.16,3.6-5.42-2.77,3.28-2.81a8.38,8.38,0,0,0,3.3,2Zm-5.56-9.52-8,1L79.51-34.4l8.55-1.33L91.82-28A8.23,8.23,0,0,0,89.32-23.65ZM68.91-35l-.57-4.49,16.33-3.09L87-37.85Zm-.38,2.35.87,5.61-6.52.78-.61-5.42ZM62.43-20.35l-12,1.46,0-11,10.71-1.67ZM50.82-32.22,54.67-46l4.74,1.8L56.68-33.13ZM49.59-32,40-30.53,46.71-49l6.9,2.6ZM39.35-35.38l-5.52-1.95,1.95-7,5.92,2.45ZM32.77-37.7l-4.89-1.74-2.37-9.14,9.23,3.85Zm-6.45,1.27L10.91-35l-.7-5L24.64-42.8ZM11.1-26.3l-7.64,1-1.06-6.6,7.24-.7ZM2.53-24l.78,4.85-3.62.55-.55-5ZM-1-24.67l-.76-6.81,3-.3,1.06,6.64ZM-1.76-8.74l-.17,6.2-6.86.61.23-6ZM-11.07,28l-.19,5.08c-1.27,0-4.3-.15-5.56-.21l.23-5.27Zm-5.1-2.6,5.56-9L-11,25.79Zm4.87,8.8-.23,6-5.56-1.1.23-5.14Zm-.32,7.17L-12.55,49l-5.88-1.52,1.18-7.13Zm-.32,11.79,3.28.83L-9,58.49l-3.41-1.63Zm.15-1.12,1.29-10.45,2.75.55-.8,10.73Zm5.12-9.69,3.58.7-.46,18L-7.9,59Zm-3.75-1.88.23-6.2,7.3.42-.19,7.22c-1.48-.3-4.25-.85-7.34-1.44Zm.27-7.32.19-5.06,7.22.51-.13,5Zm.3-7.3.42-11,7.07-.51-.32,12Zm.47-12.17.17-4.42,7,.19-.11,3.72ZM-9.13,7l.3-7.83L-2-1.42l-.21,8.63ZM-19.87-6.52-9.65-7.76l-.23,5.9L-20.34-2ZM-9.93-.76-10.23,7l-11-.27.76-7.55Zm-.4,10-.19,4.89-3.6,5.8-7.47-9.46.15-1.54ZM-14.73,21l-2.71,4.36-5.59-.4,1.29-12.84Zm-3,6.6L-18.23,39c-2.45-.49-4.66-.91-6.09-1.21l1.06-10.58ZM-24.93,6.18l-4.53-.63,2.24-12.89,3.58.68Zm.49,32.71,6.09,1.21L-20.51,53l-5.1-2.45Zm5.84,9.65,5.92,1.54-.76,6.26-6-2.88Zm5.69,12.23L-.77,66.63l-.55,1.93-16.86,4ZM.27,67.12l6,2.88L3.61,79-3,78.41Zm8,3.87,5.14,2.47L9.66,89.19l-6.47-.68Zm8.93,20.12L16.67,94l-15-.42,1.16-4Zm-6.43-1.82L14.46,74,20,76.61,17.43,90Zm9.61-2.77,16,3.45-.57,4.57L19,94.05Zm10.24,1.06L33.11,83l5.54,2.67-2,3.26Zm6.88,2.14,2.18-3.58,7.11,3.43-.93,5.25-9-.25Zm23.15-.53a4.46,4.46,0,1,1-4.46,4.46,4.46,4.46,0,0,1,4.46-4.46Zm2.24-3.43a7.87,7.87,0,0,0-2.24-.32h-.34l-4-15.72,9-2.79,2,5Zm7.3-10.52,12.53,2.54-.19,1.1-15.21,10a8.77,8.77,0,0,0-1.1-1.25ZM82.26,80.4,79.74,94.69,68.82,92.82a7.92,7.92,0,0,0-.91-3Zm3,17.5-.85,3.74-10-1.44,1.93-3.81ZM83,89.37l1.25-7,11.7,6.05-.47,3.32Zm26,10.28-12.1-2.07,1.21-8.46,12.38,2.43Zm5.75,18.6-5.16-1,2-11,5.33.68Zm7.38,1.46-5.18-1,3.28-16.86,4.85,1.08Zm3.15-17.92-4.82-1.06,3.43-17.58,4.53.78Zm14.07,10L132,112l-.19-4.85,5.95-6.56c.36,2.56,1.23,8.63,1.59,11.19Zm-1.8-12.63-5.8,6.39-.87-21.2,4.23.72Zm3.53-24-1.35,8.46-14.34-2.45,2-8.87,13.71,2.86Zm-6.79-17.62-13.39-1.86,1.63-8.84,13,2.33Zm4.42-11.64-5.71-1,1.16-5.9,5.61,1.12Zm5.61,1-4.51-.8,1.08-5.8,4.27.87Zm1.78-12.08L145.31,40l-10.94-2.2,1.1-5.61Zm-11.26-5.06-9.33-2.26,2.41-12.36,9.37,1.76Zm5.71-14.51-12.21-2.29,2-10.45,12.06,2.43Zm6.2-71.36-1.29,9-5-.08-.47-8.53Zm-6.39,11.21,4.76.08L142.54-27l-3.85,0Zm-1.74,19,3.79,0-1.59,11-3.17-.59Zm-2.09,10.26-2.12-.4-1.18-29,6,.11Zm2.28-40,.47,8.44-6.14-.11-.32-8Zm-5.52,43.21,11.93,2.24-2.58,14L130.56,1.35Zm-1.14-4-10.85-2c.42-2.45,1.14-6.64,1.4-8.1l9.1,1ZM131.7-26.8l-14.28-1.52,1.06-6.09,12.89-.13Zm-9.65-27.83,8.51-.53.34,8.38-10.22-.08Zm-1.57,8.89,10.45.08.4,10-12.65.13ZM107.31-58.18l12.48,3.32-1.35,7.66-12.5-3.68Zm11,12.1-3,16.84-9.5-20.52Zm-13.2.08,7,15.11-7.7,4.63a8.34,8.34,0,0,0-2.45-2.56Zm-2.2-8.82L98.32-30.11l-.8-.06L94.64-53.45ZM92.41-53.06l2.88,23.14a.5.5,0,0,1-.17,0L84.39-51.71Zm-15.81-6,7.55,15.4-7.45,1.42-5.18-15.4Zm-6.18,1.71c1.08,3.17,4.3,12.78,5.16,15.3l-7.4,1.4-2-15.53ZM66.66-34.68l-8.8,1.38,2.58-10.49,5.31,2Zm-1.06-8.38L55-47.08l2.5-5.46,7.22,2.62Zm-6.47-14.6L64-56.15l.63,5-6.66-2.41Zm-8.34-2.58L58.05-58,56.7-53.47,54-47.5l-6.9-2.62Zm-9.41-1.93,6.71,2.79-1.44,4-7-2.41ZM39-55.69l6.9,2.39L42.08-42.89l-6-2.5ZM28.92-59.16l9,3.11L35-45.81l-9.9-4.1-.85-3.26A43.74,43.74,0,0,0,28.92-59.16ZM16.31-56.87,21.6-60l.91,5.46a28.33,28.33,0,0,1-3.13,2.88Zm2.88,8.08a24.57,24.57,0,0,0,3.26-2.54l1.93,7.45L10.06-41l-.55-4a31.69,31.69,0,0,0,9.67-3.79Zm-10.77,4,1.4,9.94-15,1.44-.74-9.71A96.33,96.33,0,0,0,8.41-44.79ZM1.6-55l.66,8.95a121.16,121.16,0,0,1-14,.78L-12-56.66ZM-7.05-43.1l.76,9.78-8.65.83L-14.5-43C-12-43-9.55-43-7.05-43.1ZM-17.78-57.38l3.47.42.11,4.61-4.11-.51C-18.18-53.87-17.93-56-17.78-57.38Zm3.62,6.18.15,5.9c-1.69,0-3.39,0-5-.11l.62-6.35Zm-22.49-8.48,17.77,2.16L-19.41-53l-17.88-2.24Zm-.8,5.56,4.55.57-1.27,7.15c-1.8-.17-3.26-.34-4.32-.47Zm7,19.89L-40.06-36l1.25-8.63c1.93.23,5.18.59,9.25.91Zm1.35-2.35,5.73-1.78.7,5.54L-29.4-34Zm-.06,4.89,9,1.65L-22.5-10.26l-2.37-.44ZM-35.6-21.3l7.09-1.48L-26.05-11l-8.4-1.59Zm-1.14,38.47L-33-8.42l4.66.87L-32.76,17.9Zm5.1,1,2-11.47L-25,7.3-26.2,19.13Zm5.52,36.29,11.17,5.37-7.55,17-6.73-.57Zm-3.43,24,17.67,1.5-.3,5.22L-30.71,86.6Zm17.29,7.87-.4,6.88L-17.27,93V86.69Zm-18.62,1.46,12.48-1V93l-13.18-.36Zm6.67,25.33-10.11-1.35,1.52-10.62,9.56,1.31ZM-32.63,100l.53-3.62,9.41.27-.42,4.68Zm13,13.71-3.43-.47,1-10.64,3.53.49Zm1.18-11.74-3.55-.49.44-4.78,3.64.11Zm5,12.57-4-.53,1.08-10.71,3.66.21Zm-2.79-12.36.55-5.33L-1,97.25l.42,5.8Zm3.91,12.5.78-11.11,11,.63L.4,116.37ZM-.64,93.5l-9.75-.27L-10,86.5.61,89.21Zm-4-6.83,1.18-6.05L3,81.17l-2,6.94ZM1.26,97.31l15.36.44.66,4L1.69,103Zm.49,6.83,15.7-1.33,1,5.73L2.19,110.3ZM3,120.5l-.59-7.93,16.4-1.78,1.14,6.81ZM20,104.59,18.91,97.8l19.85.57c-.42,1.71-1.14,4.34-2.14,7.49ZM42.73,119l-7.43-2.84c.47-1.12.91-2.22,1.31-3.32l7.81,1.84Zm-5.33-8.27a124.22,124.22,0,0,0,3.66-12.25l4.66.13,4.57,7.79-4.74,6.24Zm15.76,3.7-6.43-1.5,4.4-5.8,4.06,1.67Zm2.43-6.69-3.75-1.54,4.3-5.65a7.54,7.54,0,0,0,1.76.87Zm2.33.21,2.2-6.05a4.25,4.25,0,0,0,.53,0,8.18,8.18,0,0,0,2.6-.42l2.67,5.42Zm2.86,9.25,1-8.61,4.7-.61,3.32,6.77Zm9.14-10.64-3.47-7.07a8.15,8.15,0,0,0,2.29-4.36l6.43,1.1Zm6.56,13.35-2-4L81.07,114l1.06,4.1ZM92.09,115l-8.88,2.75-1.06-4.08,10.56-3Zm1-6.79-19.55,5.59-3-6,3.3-6.52,19.8,2.86Zm.38,13.18,1.57-11,5.5.76-1.29,8.59Zm12.17-3.55-5.18,1.5,1.23-8.1,5.06.7Z"/></g><polygon class="cls-5" points="73.88 29.76 51.21 24.42 28.55 29.76 5.89 23.09 5.89 63.08 28.55 69.75 51.21 64.42 73.88 69.75 73.88 29.76"/><polyline class="cls-5" points="8.89 49.75 8.89 27.1 17.87 29.74"/><polyline class="cls-5" points="42.88 63.3 28.63 66.65 18.88 63.78"/><polyline class="cls-5" points="59.88 29.55 70.88 32.13 70.88 40.75"/><line class="cls-5" x1="28.55" y1="69.75" x2="28.55" y2="29.76"/><line class="cls-5" x1="51.21" y1="64.42" x2="51.21" y2="24.42"/><circle class="cls-6" cx="51.74" cy="19.46" r="2.03"/><polygon class="cls-7" points="56.81 38.59 42.63 38.59 39.59 42.77 36.55 38.59 22.36 38.59 22.36 15.41 56.81 15.41 56.81 38.59"/><g class="cls-8"><polyline class="cls-9" points="51.51 40.94 32.67 20.36 21.16 30.76 21.16 45.4 57.67 45.41 57.67 31.93 49.72 26.62 41.92 30.77"/></g><path class="cls-10" d="M56.81,15.41V38.59H42.63l-3,4.18-3-4.18H22.36V15.41H56.81m2-2H20.36V40.59H35.53L38,43.94l1.62,2.22,1.62-2.22,2.44-3.36H58.81V13.41Z"/><circle class="cls-4" cx="50.88" cy="19.75" r="2"/></g></svg>