<svg xmlns="http://www.w3.org/2000/svg" viewBox="0 0 80 80"><title>reporta</title><g id="451604f1-f16b-4dc0-a1bb-27e2db1f0737" data-name="Lineas"><path d="M23.19,47.72a.79.79,0,0,0,.6-1.31,11.19,11.19,0,0,1-2.5-9.68H62.37a.79.79,0,0,0,.79-.79V20a6,6,0,0,0-6-6H13.79a.79.79,0,0,0-.79.79V36A12.81,12.81,0,0,0,23,47.7ZM14.58,35.95V15.58h42.6a4.41,4.41,0,0,1,4.4,4.4V35.16H20.67a.79.79,0,0,0-.76.58,12.77,12.77,0,0,0,1.26,9.69A11.21,11.21,0,0,1,14.58,35.95Z"/><path d="M31,22.66H56.9a.79.79,0,1,0,0-1.58H31a.79.79,0,0,0,0,1.58Z"/><path d="M31,26H49.85a.79.79,0,0,0,0-1.58H31A.79.79,0,0,0,31,26Z"/><path d="M31,29.39H53.6a.79.79,0,1,0,0-1.58H31a.79.79,0,0,0,0,1.58Z"/><path d="M23.49,29.75A4.51,4.51,0,1,0,19,25.24,4.52,4.52,0,0,0,23.49,29.75Zm0-7.44a2.93,2.93,0,1,1-2.93,2.93A2.94,2.94,0,0,1,23.49,22.31Z"/><path d="M50.55,32.68a.79.79,0,0,0,.79.79h7.05a.79.79,0,0,0,0-1.58H51.34A.79.79,0,0,0,50.55,32.68Z"/><path d="M70.21,39.08H28.8a.79.79,0,1,0,0,1.58H69.42V61a11.23,11.23,0,0,1-6.58,9.53,12.77,12.77,0,0,0,1.26-9.69.79.79,0,0,0-.76-.58H22.42v-8a.79.79,0,0,0-1.58,0V61a.79.79,0,0,0,.79.79H62.71a11.19,11.19,0,0,1-2.5,9.68.79.79,0,0,0,.6,1.31l.17,0A12.82,12.82,0,0,0,71,61V39.87A.79.79,0,0,0,70.21,39.08Z"/><path d="M53,46.16H27.1a.79.79,0,1,0,0,1.58H53a.79.79,0,0,0,0-1.58Z"/><path d="M53,49.52H34.15a.79.79,0,0,0,0,1.58H53a.79.79,0,0,0,0-1.58Z"/><path d="M53.75,53.68a.79.79,0,0,0-.79-.79H30.4a.79.79,0,1,0,0,1.58H53A.79.79,0,0,0,53.75,53.68Z"/><path d="M65,50.31a4.51,4.51,0,1,0-4.51,4.51A4.52,4.52,0,0,0,65,50.31Zm-7.44,0a2.93,2.93,0,1,1,2.93,2.93A2.94,2.94,0,0,1,57.58,50.31Z"/><path d="M25.61,57a.79.79,0,0,0,0,1.58h7.05a.79.79,0,0,0,0-1.58Z"/></g></svg>