<svg xmlns="http://www.w3.org/2000/svg" viewBox="0 0 80 80"><title>zona-geografica</title><g id="059187db-f6d6-4dec-a19c-60c0f27280b6" data-name="Lineas"><path d="M72.85,69.93,56.78,46.71a.86.86,0,0,0-.71-.37H47.2a.86.86,0,1,0,0,1.72h8.42L70.5,69.56H9.5L24.38,48.06H32.8a.86.86,0,1,0,0-1.72H23.93a.86.86,0,0,0-.71.37L7.15,69.93a.86.86,0,0,0,.71,1.35H72.14a.86.86,0,0,0,.71-1.35Z"/><path d="M39.14,54.35a.86.86,0,1,0,1.72,0c0-6.16,3.91-13.18,7.35-19.38,2.83-5.08,5.27-9.48,5.27-12.76a13.48,13.48,0,1,0-27,0c0,3.28,2.44,7.67,5.27,12.76C35.23,41.16,39.14,48.18,39.14,54.35ZM40,10.44A11.78,11.78,0,0,1,51.76,22.21c0,2.84-2.45,7.25-5.05,11.92S41.37,43.72,40,48.64c-1.37-4.91-4.16-9.93-6.71-14.51S28.24,25,28.24,22.21A11.78,11.78,0,0,1,40,10.44Z"/><path d="M40,14.91a7.31,7.31,0,0,1,7.3,7.3.86.86,0,0,0,1.72,0,9,9,0,0,0-9-9,.86.86,0,0,0,0,1.72Z"/><path d="M40,27.15a4.94,4.94,0,1,0-4.94-4.94A4.94,4.94,0,0,0,40,27.15ZM40,19a3.22,3.22,0,1,1-3.22,3.22A3.22,3.22,0,0,1,40,19Z"/><path d="M17.41,64.87c-.91.86-1.13,1.22-1,1.7a.89.89,0,0,0,.58.64A.86.86,0,0,0,18,66.68a7,7,0,0,1,.54-.56.86.86,0,1,0-1.18-1.25Z"/><path d="M45.77,62.66h.07a17.07,17.07,0,0,0,2.47-.37.86.86,0,0,0-.39-1.68,15.29,15.29,0,0,1-2.22.33.86.86,0,0,0,.07,1.72Z"/><path d="M39.56,60.7a.86.86,0,0,0-.22,1.71c.84.11,1.65.19,2.41.24h.06a.86.86,0,0,0,.06-1.72C41.15,60.88,40.37,60.8,39.56,60.7Z"/><path d="M52.73,57.72a7,7,0,0,1-1.5,1.48.86.86,0,1,0,1,1.39,8.73,8.73,0,0,0,1.87-1.84.86.86,0,1,0-1.38-1Z"/><path d="M22.84,61.17a23.19,23.19,0,0,0-2.16,1.2.86.86,0,0,0,.92,1.46,21.36,21.36,0,0,1,2-1.11.86.86,0,1,0-.75-1.55Z"/><path d="M26.73,59.75a.86.86,0,0,0,.2,1.69l.21,0A14.4,14.4,0,0,1,29.35,61a.86.86,0,1,0-.15-1.71A16.2,16.2,0,0,0,26.73,59.75Z"/><path d="M33.5,59.61l-.11,0a.82.82,0,0,0-1,.67.9.9,0,0,0,.7,1q1.16.26,2.26.47l.16,0a.86.86,0,0,0,.16-1.7C35,59.93,34.25,59.77,33.5,59.61Z"/><path d="M54.86,55.46l.21,0a.86.86,0,0,0,.83-.65q.15-.6.27-1.24a.86.86,0,0,0-1.69-.3q-.1.58-.24,1.11A.86.86,0,0,0,54.86,55.46Z"/></g></svg>