<svg xmlns="http://www.w3.org/2000/svg" viewBox="0 0 80 80"><title>alertas</title><g id="c9f80576-9842-4340-8941-c78af7aa8386" data-name="Lineas"><path d="M40.81,14.39A.81.81,0,0,0,40.1,14a.79.79,0,0,0-.72.42L12.53,63.84a.81.81,0,0,0,.71,1.2h52.7a.81.81,0,0,0,.72-1.19Zm-26.2,49L40.08,16.49,64.61,63.42Z"/><path d="M31,38.38a.81.81,0,0,0-1.1.33L18,60.6a.81.81,0,0,0,.71,1.2h3.47a.81.81,0,0,0,0-1.62H20.06L31.29,39.48A.81.81,0,0,0,31,38.38Z"/><path d="M59.25,60.18h-3a.81.81,0,0,0,0,1.62h4.38a.81.81,0,0,0,.72-1.19L41.81,23.32a.81.81,0,0,0-1.44.75Z"/><path d="M39.93,51.19a.81.81,0,0,0,.88-.74L42.33,31.8a2.52,2.52,0,0,0,0-.38,2.34,2.34,0,0,0-4.66.38l1.52,18.65A.81.81,0,0,0,39.93,51.19Z"/><circle cx="40" cy="56.12" r="2.43"/><path d="M14.66,48.64a.81.81,0,0,0,.41-1.51l-3.85-2.24a.81.81,0,0,0-.82,1.4l3.85,2.24A.81.81,0,0,0,14.66,48.64Z"/><path d="M20.31,36.68a.81.81,0,1,0,1.32-.95l-6.1-8.46a.81.81,0,1,0-1.32.95Z"/><path d="M26.54,24.78a.81.81,0,0,0,1.54-.51l-2.71-8.13a.81.81,0,0,0-1.54.51Z"/><path d="M69.89,45.17a.81.81,0,0,0-1.11-.29l-3.85,2.24a.81.81,0,0,0,.82,1.4l3.85-2.24A.81.81,0,0,0,69.89,45.17Z"/><path d="M59,37a.81.81,0,0,0,.66-.34l6.1-8.46a.81.81,0,1,0-1.32-.95l-6.1,8.46A.81.81,0,0,0,59,37Z"/><path d="M52.44,25.29a.81.81,0,0,0,1-.51l2.71-8.13a.81.81,0,0,0-1.54-.51l-2.71,8.13A.81.81,0,0,0,52.44,25.29Z"/></g></svg>