<svg xmlns="http://www.w3.org/2000/svg" viewBox="0 0 80 80"><title>boton</title><g id="ab649b48-de37-42d6-b7c0-0f65d8b6a04f" data-name="Lineas"><path d="M44.74,61l.43-.2.46-.23.56-.29.3-.17.68-.39.17-.1.76-.49.08-.05.8-.57,0,0,.79-.62.05,0,.74-.65.08-.07.67-.64q.41-.41.8-.84l.36-.42.5-.6.34-.43c.23-.3.46-.61.67-.93L54.2,53q.31-.46.59-.94l.23-.39.36-.67.2-.38c.13-.27.26-.54.38-.81l.12-.26c.16-.38.31-.75.45-1.14v0q.2-.55.37-1.11L57,47c.08-.29.16-.58.23-.87l.05-.22c.07-.32.14-.65.2-1l0-.14q.1-.54.17-1.08v-.07q.07-.57.11-1.15v0c0-.25,0-.48,0-.7s0-.57,0-.85c0-.53,0-1.06-.07-1.58s-.09-1-.17-1.48v-.11c0-.34-.11-.68-.17-1,0-.16-.07-.33-.1-.49q-.15-.68-.34-1.35c-.08-.27-.15-.53-.24-.79s-.16-.47-.25-.7-.19-.51-.3-.76-.19-.47-.29-.7-.32-.68-.49-1-.29-.55-.45-.82-.3-.53-.46-.79l-.42-.64-.41-.59c-.21-.29-.42-.57-.63-.84l-.4-.49c-.22-.26-.44-.52-.68-.77l-.5-.51c-.22-.23-.45-.45-.68-.67l-.57-.5c-.24-.2-.47-.41-.71-.6s-.71-.55-1.08-.81L48,22.55c-.35-.23-.7-.46-1.07-.67l-.33-.19Q46,21.35,45.32,21L45,20.89q-.7-.32-1.42-.59l-.3-.11c-.51-.18-1-.36-1.57-.5A22,22,0,0,0,13.82,40.91a22.1,22.1,0,0,0,21.65,22h.36l1.09,0,.37,0,.71-.05.46-.06.6-.08.52-.09.52-.09.58-.13.45-.1.62-.17.39-.11.65-.21.34-.12.65-.24.35-.14ZM35,25.06a.82.82,0,1,1,1.63,0V42.12a.82.82,0,1,1-1.63,0ZM21.15,40.66A14.7,14.7,0,0,1,26,29.79.82.82,0,0,1,27.07,31a13,13,0,1,0,17.52,0,.82.82,0,0,1,1.1-1.21A14.68,14.68,0,1,1,21.15,40.66Z" style="fill:#f0866a"/><path d="M36.65,42.12a.81.81,0,0,0,.82-.82V24.24a.82.82,0,0,0-1.63,0V41.3A.81.81,0,0,0,36.65,42.12Z"/><path d="M51.32,39.84A14.7,14.7,0,0,0,46.5,29a.82.82,0,1,0-1.1,1.21,13,13,0,1,1-17.52,0A.82.82,0,1,0,26.79,29,14.68,14.68,0,1,0,51.32,39.84Z"/><path d="M65.62,36.69a23.5,23.5,0,0,0-1.51-5.06h0a23.78,23.78,0,0,0-8.26-10.13h0a23.51,23.51,0,0,0-13-4.21A23.64,23.64,0,0,0,13,40.09,23.73,23.73,0,0,0,36.16,63.73,23.66,23.66,0,0,0,63.29,51.89h0A23.27,23.27,0,0,0,66,41.75v-.1c0-.25,0-.5,0-.75A23.86,23.86,0,0,0,65.62,36.69Zm-3.54,14H57.78l.06-.13q.35-.7.65-1.42l.08-.19q.27-.68.51-1.37l.05-.14h4.26A22,22,0,0,1,62.07,50.69Zm-1.78-10.6c0-.51,0-1-.07-1.58q0-.39-.07-.78v-.08h4a22,22,0,0,1,.25,3.26H60.28C60.29,40.62,60.29,40.35,60.29,40.09ZM63.82,36H59.93a23.51,23.51,0,0,0-.72-2.92c0-.11-.06-.23-.1-.34h3.69A21.8,21.8,0,0,1,63.82,36ZM59.59,45.8v0c.12-.5.23-1,.32-1.53l0-.1c.09-.53.17-1.06.23-1.6H64.3a22.07,22.07,0,0,1-.48,3.26ZM58.51,31.12,58.45,31c-.15-.36-.32-.71-.48-1.06s-.2-.43-.31-.64-.36-.66-.55-1c-.08-.14-.15-.29-.24-.43h3.22a22,22,0,0,1,2,3.26Zm.24-4.89h-3l-.1-.13c-.34-.47-.71-.92-1.09-1.37l-.21-.26c-.46-.52-.94-1-1.44-1.51h2.17A22,22,0,0,1,58.76,26.23Zm-6.31-4.89H51c-.29-.22-.58-.43-.87-.63l-.48-.33-.74-.48A21.87,21.87,0,0,1,52.44,21.34ZM14.63,40.09A22,22,0,0,1,42.51,18.87c.53.15,1.05.32,1.57.5l.3.11q.72.27,1.42.59l.34.16q.63.3,1.25.64l.33.19c.36.21.72.44,1.07.67l.46.31q.55.39,1.08.81c.24.19.48.4.71.6l.57.5c.23.22.45.44.68.67l.5.51c.23.25.46.51.68.77l.4.49c.22.27.43.56.63.84l.41.59.42.64c.16.26.31.52.46.79s.3.54.45.82.34.67.49,1,.2.47.29.7.2.51.3.76.17.47.25.7.16.53.24.79q.19.67.34,1.35c0,.16.07.33.1.49.07.34.13.68.17,1V37c.07.51.13,1,.17,1.48s.07,1,.07,1.58c0,.29,0,.57,0,.85s0,.45,0,.7v0q0,.58-.11,1.15v.07q-.07.54-.17,1.08l0,.14c-.06.33-.13.65-.2,1l-.05.22c-.07.29-.15.58-.23.87l-.08.27q-.17.56-.37,1.11v0c-.14.38-.29.76-.45,1.14l-.12.26c-.12.27-.25.55-.38.81l-.2.38-.36.67-.23.39q-.28.48-.59.94l-.18.27c-.22.32-.44.62-.67.93l-.34.43-.5.6-.36.42q-.39.43-.8.84l-.67.64-.08.07-.74.65-.05,0-.79.62,0,0-.8.57-.08.05-.76.49L48,59l-.68.39-.3.17-.56.29L46,60l-.43.2-.61.26-.35.14-.65.24-.34.12-.65.21-.39.11-.62.17-.45.1-.58.13-.52.09-.52.09-.6.08-.46.06-.71.05-.37,0-1.09,0h-.36A22.1,22.1,0,0,1,14.63,40.09ZM42.82,62.92l.22-.07.9-.27.31-.1.86-.31.16-.06h3A21.81,21.81,0,0,1,42.82,62.92Zm9.61-2.44H48.63l.21-.13.27-.17a23.49,23.49,0,0,0,2.46-1.76l.13-.1.67-.58.26-.23.31-.28h4.19A22,22,0,0,1,52.43,60.48Zm6.32-4.89H54.5l.17-.22c.34-.4.67-.82,1-1.24l.24-.34c.33-.46.65-.94.95-1.42l0,0h4.3A22.11,22.11,0,0,1,58.76,55.58Z"/></g></svg>