<svg xmlns="http://www.w3.org/2000/svg" viewBox="0 0 80 80"><title>comparti-ubicacion</title><g id="18acb2f6-7b1f-4672-b78a-a6d8e79b6c93" data-name="Lineas"><path d="M70.91,57.49a8.32,8.32,0,0,0-5.85-4c-3-.5-9.52,1.21-12.71,2.12.37-2.46-2.12-4.38-7.41-5.7-2.34-.59-6.79-2.08-10-3.17l-2.91-1c-2.4-.78-6.78.22-8.9.79a2.51,2.51,0,0,0-2-2.56L12,42.16a2.51,2.51,0,0,0-3,2.46V61.43a2.51,2.51,0,0,0,2.51,2.51h7.11a2.52,2.52,0,0,0,2.49-2.18l0-.18c7.22,3.74,17.12,7.86,22.74,7.86S69.7,59,70.56,58.58A.82.82,0,0,0,70.91,57.49ZM18.62,62.31H11.51a.88.88,0,0,1-.88-.88V44.62a.88.88,0,0,1,.88-.88l.18,0,9.09,1.83a.88.88,0,0,1,.7,1l-2,15A.88.88,0,0,1,18.62,62.31ZM62.09,61l-.43-1a.81.81,0,0,0-1.5.64l.45,1.05c-2.42,1.13-4.91,2.25-7.25,3.21l-.49-1.14a.81.81,0,0,0-1.5.64l.48,1.11c-3.47,1.38-6.43,2.32-8,2.32-5.12,0-14.9-4-22.51-8L22.89,48.3c2.09-.61,6.56-1.65,8.6-1l2.89,1c3.27,1.1,7.76,2.6,10.16,3.2,4.24,1.06,6.49,2.51,6.18,4a1.78,1.78,0,0,1-.38.79.8.8,0,0,0-.22.23,2.29,2.29,0,0,1-.31.22C48.35,57.58,44.41,58,34,55a.81.81,0,0,0-.45,1.57c5.54,1.6,9.79,2.4,12.84,2.4a8.29,8.29,0,0,0,4.22-.88,3.86,3.86,0,0,0,.65-.49c3-.94,10.64-3,13.48-2.53A6.78,6.78,0,0,1,69,57.55C67,58.56,64.64,59.75,62.09,61Z"/><path d="M41.14,46a.76.76,0,0,0,1.4-.59,102.55,102.55,0,0,0-5-9.86c-2.56-4.59-5-8.93-5-11.74a11.63,11.63,0,0,1,23.25,0c0,2.81-2.41,7.15-5,11.74a100.35,100.35,0,0,0-5.12,10.08.76.76,0,1,0,1.4.58,99.16,99.16,0,0,1,5-9.92c2.77-5,5.16-9.28,5.16-12.48a13.14,13.14,0,0,0-26.28,0c0,3.2,2.39,7.5,5.16,12.48A101.56,101.56,0,0,1,41.14,46Z"/><path d="M51.41,23.77a.76.76,0,0,0,1.52,0A8.77,8.77,0,0,0,44.17,15a.76.76,0,1,0,0,1.52A7.25,7.25,0,0,1,51.41,23.77Z"/><path d="M39.41,23.77A4.76,4.76,0,1,0,44.17,19,4.77,4.77,0,0,0,39.41,23.77Zm4.76-3.24a3.24,3.24,0,1,1-3.24,3.24A3.25,3.25,0,0,1,44.17,20.53Z"/><path d="M15.38,46.48a3.1,3.1,0,1,0,3.1,3.1A3.11,3.11,0,0,0,15.38,46.48Zm0,4.57a1.47,1.47,0,1,1,1.47-1.47A1.47,1.47,0,0,1,15.38,51.05Z"/></g></svg>