<svg xmlns="http://www.w3.org/2000/svg" viewBox="0 0 80 80"><title>fotos-georeferenciadas</title><g id="990b7e3f-780f-4286-a9d1-9ca20562a7a4" data-name="Lineas"><path d="M40,63.5A10.27,10.27,0,1,0,29.73,53.24,10.28,10.28,0,0,0,40,63.5Zm0-19a8.71,8.71,0,1,1-8.71,8.71A8.72,8.72,0,0,1,40,44.52Z"/><path d="M47.1,64.17a.78.78,0,0,0,.45-.14A13.15,13.15,0,0,0,52.3,58h0a13.13,13.13,0,0,0,.77-3.06.78.78,0,1,0-1.54-.19,11.54,11.54,0,0,1-.67,2.7h0a11.6,11.6,0,0,1-4.2,5.37.78.78,0,0,0,.45,1.42Z"/><path d="M51.15,50a.78.78,0,0,0,1.56,0c0-5.53,3.51-11.84,6.6-17.4C61.85,28,64,24.06,64,21.11a12.12,12.12,0,0,0-24.23,0c0,3,2.19,6.9,4.73,11.46C47.65,38.13,51.15,44.44,51.15,50Zm.78-39.43A10.57,10.57,0,0,1,62.49,21.11c0,2.55-2.2,6.51-4.54,10.71s-4.79,8.61-6,13c-1.23-4.41-3.74-8.9-6-13s-4.54-8.16-4.54-10.71A10.57,10.57,0,0,1,51.93,10.55Z"/><path d="M51.93,14.56a6.56,6.56,0,0,1,6.55,6.55.78.78,0,0,0,1.56,0A8.11,8.11,0,0,0,51.93,13a.78.78,0,1,0,0,1.56Z"/><path d="M51.93,25.55a4.44,4.44,0,1,0-4.44-4.44A4.45,4.45,0,0,0,51.93,25.55Zm0-7.33A2.89,2.89,0,1,1,49,21.11,2.89,2.89,0,0,1,51.93,18.22Z"/><path d="M58.16,38.07a.78.78,0,0,0,.78.78h5.46a.78.78,0,0,0,0-1.56H58.93A.78.78,0,0,0,58.16,38.07Z"/><path d="M69,33.86a.78.78,0,0,0-.78-.78H61.91a.78.78,0,1,0,0,1.56h5.54V62.41l-2.28,2.38V46.59a.78.78,0,0,0-1.56,0V66H14.81a2.51,2.51,0,0,1-2.25-2.7l.06-25.18,3.3-3.45H41a.78.78,0,0,0,0-1.56H16a.77.77,0,0,0-.91.15l-3.83,4a.77.77,0,0,0-.21.59s0,0,0,0L11,63.26a4.05,4.05,0,0,0,3.81,4.25H64.39a.77.77,0,0,0,.3-.06l0,0a.78.78,0,0,0,.22-.15h0l3.83-4a.78.78,0,0,0,.22-.54V34.06a.73.73,0,0,0,0-.1A.73.73,0,0,0,69,33.86Z"/><path d="M44.27,37.87a.78.78,0,0,0-.78-.78H21.33a.78.78,0,0,0,0,1.56H43.5A.78.78,0,0,0,44.27,37.87Z"/><path d="M40,60.34a7.07,7.07,0,0,0,4.74-1.82,5.78,5.78,0,0,1,0-10.55A7.1,7.1,0,1,0,40,60.34Z"/><path d="M21.77,44.37a.78.78,0,0,0-1.1,0l-3.83,4A.78.78,0,0,0,18,49.48l3.83-4A.78.78,0,0,0,21.77,44.37Z"/><path d="M21.77,48.63a.78.78,0,0,0-1.1,0l-3.83,4A.78.78,0,0,0,18,53.74l3.83-4A.78.78,0,0,0,21.77,48.63Z"/><path d="M21.77,52.89a.78.78,0,0,0-1.1,0l-3.83,4A.78.78,0,0,0,18,58l3.83-4A.78.78,0,0,0,21.77,52.89Z"/><path d="M20.67,57.17l-3.83,4A.78.78,0,0,0,18,62.26l3.83-4a.78.78,0,1,0-1.12-1.07Z"/></g></svg>