<svg xmlns="http://www.w3.org/2000/svg" viewBox="0 0 80 80"><title>fotos-georeferenciadas-color</title><g id="1c11a720-13a6-4180-b317-111face65214" data-name="Lineas"><path d="M50.2,45.38c1.23-4.41,3.74-8.9,6-13s4.54-8.16,4.54-10.71a10.56,10.56,0,0,0-21.12,0c0,2.55,2.2,6.51,4.54,10.71S49,41,50.2,45.38Zm0-31.82a8.11,8.11,0,0,1,8.11,8.11.78.78,0,0,1-1.56,0,6.56,6.56,0,0,0-6.55-6.55.78.78,0,1,1,0-1.56Zm0,3.66a4.44,4.44,0,1,1-4.44,4.44A4.45,4.45,0,0,1,50.2,17.22Z" style="fill:#f0866a"/><path d="M51,53.85a.78.78,0,0,1-.78-.78c0-4.86-2.71-10.31-5.46-15.34H15l-3.3,3.45-.06,25.18a2.51,2.51,0,0,0,2.25,2.7H62.7V49.69a.78.78,0,1,1,1.56,0V67.89l2.28-2.38V37.73H57.25c-2.75,5-5.46,10.48-5.46,15.34A.78.78,0,0,1,51,53.85ZM20.41,40.19H42.58a.78.78,0,0,1,0,1.56H20.41a.78.78,0,0,1,0-1.56Zm.47,21.16-3.83,4a.78.78,0,1,1-1.12-1.08l3.83-4a.78.78,0,0,1,1.12,1.08Zm0-4.26L17,61.1A.78.78,0,0,1,15.92,60l3.83-4a.78.78,0,0,1,1.12,1.08Zm0-4.26-3.83,4a.78.78,0,0,1-1.12-1.08l3.83-4a.78.78,0,0,1,1.12,1.08Zm0-4.26-3.83,4a.78.78,0,0,1-1.12-1.08l3.83-4a.78.78,0,0,1,1.12,1.08Zm7.94,7.77A10.27,10.27,0,1,1,39.08,66.6,10.28,10.28,0,0,1,28.82,56.34ZM58,40.39h5.46a.78.78,0,0,1,0,1.56H58a.78.78,0,0,1,0-1.56ZM52.15,58a13.14,13.14,0,0,1-.77,3.06h0a13.14,13.14,0,0,1-4.76,6.08.78.78,0,1,1-.89-1.27,11.6,11.6,0,0,0,4.2-5.37h0a11.56,11.56,0,0,0,.68-2.7.78.78,0,1,1,1.54.19Z" style="fill:#b24592"/><path d="M40.25,65.62A10.27,10.27,0,1,0,30,55.35,10.28,10.28,0,0,0,40.25,65.62Zm0-19a8.71,8.71,0,1,1-8.71,8.71A8.72,8.72,0,0,1,40.25,46.64Z"/><path d="M47.35,66.29a.78.78,0,0,0,.45-.14,13.16,13.16,0,0,0,4.76-6.08h0A13.12,13.12,0,0,0,53.32,57a.78.78,0,1,0-1.54-.19,11.56,11.56,0,0,1-.67,2.7h0a11.61,11.61,0,0,1-4.2,5.37.78.78,0,0,0,.45,1.42Z"/><path d="M51.4,52.09a.78.78,0,1,0,1.56,0c0-5.53,3.51-11.84,6.6-17.4,2.54-4.57,4.74-8.51,4.74-11.46a12.12,12.12,0,0,0-24.23,0c0,3,2.19,6.9,4.73,11.46C47.9,40.25,51.4,46.56,51.4,52.09Zm.78-39.43A10.57,10.57,0,0,1,62.74,23.22c0,2.55-2.2,6.51-4.54,10.71s-4.79,8.61-6,13c-1.23-4.4-3.74-8.9-6-13s-4.54-8.16-4.54-10.71A10.57,10.57,0,0,1,52.18,12.66Z"/><path d="M52.18,16.67a6.56,6.56,0,0,1,6.55,6.55.78.78,0,0,0,1.56,0,8.12,8.12,0,0,0-8.11-8.11.78.78,0,1,0,0,1.56Z"/><path d="M52.18,27.66a4.44,4.44,0,1,0-4.44-4.44A4.45,4.45,0,0,0,52.18,27.66Zm0-7.33a2.89,2.89,0,1,1-2.89,2.89A2.89,2.89,0,0,1,52.18,20.34Z"/><path d="M58.41,40.18a.78.78,0,0,0,.78.78h5.46a.78.78,0,1,0,0-1.56H59.18A.78.78,0,0,0,58.41,40.18Z"/><path d="M69.25,36a.78.78,0,0,0-.78-.78H62.16a.78.78,0,1,0,0,1.56h5.54V64.53l-2.28,2.38V48.7a.78.78,0,0,0-1.56,0V68.07H15.06a2.51,2.51,0,0,1-2.25-2.7l.06-25.18,3.3-3.45h25a.78.78,0,0,0,0-1.56H16.27a.77.77,0,0,0-.91.15l-3.83,4a.77.77,0,0,0-.21.59s0,0,0,0l-.06,25.4a4.05,4.05,0,0,0,3.81,4.25H64.64a.77.77,0,0,0,.3-.06l0,0a.78.78,0,0,0,.21-.15h0l3.83-4a.78.78,0,0,0,.22-.54V36.17a.73.73,0,0,0,0-.1A.73.73,0,0,0,69.25,36Z"/><path d="M44.52,40a.78.78,0,0,0-.78-.78H21.58a.78.78,0,0,0,0,1.56H43.75A.78.78,0,0,0,44.52,40Z"/><path d="M40.25,62.45A7.07,7.07,0,0,0,45,60.63a5.78,5.78,0,0,1,0-10.55,7.1,7.1,0,1,0-4.74,12.38Z"/><path d="M22,46.49a.78.78,0,0,0-1.1,0l-3.83,4a.78.78,0,0,0,1.12,1.08l3.83-4A.78.78,0,0,0,22,46.49Z"/><path d="M22,50.74a.78.78,0,0,0-1.1,0l-3.83,4a.78.78,0,0,0,1.12,1.08l3.83-4A.78.78,0,0,0,22,50.74Z"/><path d="M22,55a.78.78,0,0,0-1.1,0l-3.83,4a.78.78,0,0,0,1.12,1.08l3.83-4A.78.78,0,0,0,22,55Z"/><path d="M20.92,59.29l-3.83,4a.78.78,0,0,0,1.12,1.08l3.83-4a.78.78,0,0,0-1.12-1.08Z"/></g></svg>