<svg xmlns="http://www.w3.org/2000/svg" viewBox="0 0 80 80"><title>geo-cercas</title><g id="eea6c2c3-138f-4dfe-8284-e43631ed36e8" data-name="Lineas"><path d="M53.45,44.53c1.86-2.41,4-4.72,6-6.91,3.36-3.69,6.54-7.17,7.15-9.75A11,11,0,0,0,58.4,14.69a11,11,0,0,0-2.54-.3,11,11,0,0,0-10.65,8.45c-.61,2.57.68,7.11,2,11.92.89,3.14,2.19,10.19,1.77,13.92ZM55,22.71a1.35,1.35,0,1,1,1,1.62A1.35,1.35,0,0,1,55,22.71ZM47.57,21a1.35,1.35,0,1,1,1,1.62A1.35,1.35,0,0,1,47.57,21Zm.59,3.37,7.42,1.75C54.45,30.88,46.92,29.56,48.16,24.32Z" style="fill:#f0866a"/><path d="M31.6,49.09c-.41-3.32.5-11,1.36-14.05,1.36-4.8,2.64-9.34,2-11.91a11,11,0,0,0-10.65-8.45,11,11,0,0,0-2.54.3,11,11,0,0,0-8.15,13.19c.61,2.57,3.78,6.06,7.15,9.75,1.9,2.08,3.9,4.28,5.69,6.57ZM31,20.24a1.35,1.35,0,1,1-1,1.62A1.35,1.35,0,0,1,31,20.24ZM22.6,23.61a1.35,1.35,0,1,1,1.62,1A1.35,1.35,0,0,1,22.6,23.61Zm2,2.75,7.42-1.75C33.29,29.85,25.76,31.16,24.63,26.36Z" style="fill:#f0866a"/><path d="M51.94,46.79a24.24,24.24,0,0,0-4.47,8.59.83.83,0,0,1-.81.64l-.19,0a.83.83,0,0,1-.64-.81.86.86,0,0,1,0-.19,22.25,22.25,0,0,0,.08-8.21H32.55a22.7,22.7,0,0,0,0,8.55.86.86,0,0,1,0,.19.83.83,0,0,1-.64.81l-.19,0a.83.83,0,0,1-.81-.64,24.84,24.84,0,0,0-4.73-8.93H24.38L10.51,66.92H67.68L53.63,46.79ZM19,63.72a6.59,6.59,0,0,0-.52.54.83.83,0,0,1-1,.51.86.86,0,0,1-.56-.62c-.1-.46.11-.81,1-1.64A.83.83,0,0,1,19,63.72Zm4.69-3.18a19.82,19.82,0,0,0-1.87,1,.83.83,0,0,1-.88-1.4A21.29,21.29,0,0,1,23,59a.83.83,0,0,1,.72,1.49ZM29.12,59a13.55,13.55,0,0,0-2.07.34l-.2,0a.83.83,0,0,1-.2-1.64A15.21,15.21,0,0,1,29,57.33.83.83,0,1,1,29.12,59Zm5.8.68h-.16q-1-.2-2.13-.44a.86.86,0,0,1-.67-1,.79.79,0,0,1,.95-.64l.08,0c.72.16,1.41.3,2.08.43a.83.83,0,0,1-.16,1.64Zm5.88.82h-.06c-.72-.05-1.48-.13-2.26-.23a.83.83,0,0,1,.21-1.65c.75.1,1.48.17,2.17.22a.83.83,0,0,1-.06,1.66Zm6.09-.33a16.44,16.44,0,0,1-2.32.34h-.07a.83.83,0,0,1-.06-1.66,14.66,14.66,0,0,0,2.08-.31.83.83,0,1,1,.37,1.62Zm5.45-3.31a8.23,8.23,0,0,1-1.76,1.72.83.83,0,1,1-1-1.35A6.58,6.58,0,0,0,51,55.84a.83.83,0,1,1,1.32,1Zm2-4.87q-.11.63-.26,1.2a.83.83,0,0,1-.8.62l-.21,0a.83.83,0,0,1-.59-1q.13-.51.23-1.07a.83.83,0,1,1,1.63.28Z" style="fill:#41b395"/><path d="M21,38.53c4.46,4.89,9.52,10.44,10.84,16a.83.83,0,0,0,.81.64l.19,0a.83.83,0,0,0,.64-.81.82.82,0,0,0,0-.19C32.16,48.59,34.2,41.37,36,35c1.48-5.23,2.76-9.75,2.06-12.75A12.62,12.62,0,1,0,13.49,28C14.19,31,17.36,34.51,21,38.53ZM16.45,19.38a11,11,0,0,1,20,3.25c.61,2.57-.68,7.11-2,11.92s-2.78,9.81-3,14.54c-2.3-4.14-5.89-8.08-9.17-11.68s-6.54-7.17-7.15-9.75A10.89,10.89,0,0,1,16.45,19.38Z" style="fill:#1d1d1b"/><circle cx="25.35" cy="22.81" r="1.35" transform="translate(-4.56 6.43) rotate(-13.28)" style="fill:#1d1d1b"/><circle cx="32.78" cy="21.06" r="1.35" transform="translate(-3.96 8.09) rotate(-13.28)" style="fill:#1d1d1b"/><path d="M26.07,25.87c1.13,4.8,8.66,3.49,7.42-1.75Z" style="fill:#1d1d1b"/><path d="M46.75,53.85a.82.82,0,0,0,0,.19.83.83,0,0,0,.64.81l.19,0a.83.83,0,0,0,.81-.64c1.32-5.6,6.38-11.14,10.84-16,3.67-4,6.83-7.49,7.54-10.48a12.62,12.62,0,1,0-24.57-5.8c-.71,3,.57,7.51,2.06,12.75C46,41,48.08,48.25,46.75,53.85Zm-3-31.56a11,11,0,1,1,21.34,5c-.61,2.57-3.78,6.06-7.15,9.75s-6.87,7.53-9.17,11.68c-.21-4.74-1.66-9.86-3-14.54S43.18,24.86,43.79,22.29Z" style="fill:#1d1d1b"/><circle cx="54.88" cy="22.47" r="1.35" transform="translate(20.4 70.72) rotate(-76.72)" style="fill:#1d1d1b"/><circle cx="47.45" cy="20.72" r="1.35" transform="translate(16.39 62.15) rotate(-76.72)" style="fill:#1d1d1b"/><path d="M54.16,25.53l-7.42-1.75C45.5,29,53,30.33,54.16,25.53Z" style="fill:#1d1d1b"/><path d="M70.86,66.13,56.95,45.75a.83.83,0,0,0-1.37.93l13,19.09H11.4L24.19,47.13a.83.83,0,0,0-1.37-.94L9.15,66.13a.83.83,0,0,0,.68,1.3H70.17a.83.83,0,0,0,.69-1.3Z" style="fill:#1d1d1b"/><path d="M44.76,44.81a.83.83,0,0,0-.83-.83H36.07a.83.83,0,0,0,0,1.66h7.86A.83.83,0,0,0,44.76,44.81Z" style="fill:#1d1d1b"/><path d="M18.8,61.36c-.88.83-1.09,1.18-1,1.64a.86.86,0,0,0,.56.62.84.84,0,0,0,.26,0,.83.83,0,0,0,.78-.55,6.71,6.71,0,0,1,.52-.54.83.83,0,1,0-1.14-1.21Z" style="fill:#1d1d1b"/><path d="M23.9,57.89a21.3,21.3,0,0,0-2,1.13.83.83,0,1,0,.88,1.4,19.73,19.73,0,0,1,1.87-1,.83.83,0,0,0-.72-1.49Z" style="fill:#1d1d1b"/><path d="M45.41,59.34h.07A16.07,16.07,0,0,0,47.79,59a.83.83,0,1,0-.37-1.62,14.51,14.51,0,0,1-2.08.31.83.83,0,0,0,.06,1.66Z" style="fill:#1d1d1b"/><path d="M33.89,56.43l-.08,0a.8.8,0,0,0-.95.64.86.86,0,0,0,.67,1q1.09.24,2.12.44h.16A.83.83,0,0,0,36,56.86C35.3,56.73,34.61,56.59,33.89,56.43Z" style="fill:#1d1d1b"/><path d="M27.55,56.56a.83.83,0,0,0,.2,1.64l.2,0A13.54,13.54,0,0,1,30,57.83a.83.83,0,1,0-.14-1.65A15.23,15.23,0,0,0,27.55,56.56Z" style="fill:#1d1d1b"/><path d="M39.59,57.45a.83.83,0,0,0-.21,1.65c.78.1,1.54.18,2.26.23h.06a.83.83,0,0,0,.06-1.66C41.07,57.62,40.34,57.55,39.59,57.45Z" style="fill:#1d1d1b"/><path d="M51.92,54.68a6.56,6.56,0,0,1-1.41,1.37.83.83,0,1,0,1,1.35,8.22,8.22,0,0,0,1.77-1.72.83.83,0,1,0-1.32-1Z" style="fill:#1d1d1b"/><path d="M53.94,52.61l.21,0a.83.83,0,0,0,.8-.62q.15-.58.26-1.2a.83.83,0,0,0-1.63-.28c-.06.37-.14.73-.23,1.07A.83.83,0,0,0,53.94,52.61Z" style="fill:#1d1d1b"/></g></svg>