<svg xmlns="http://www.w3.org/2000/svg" viewBox="0 0 80 80"><title>llegando-a-casa</title><g id="c3de400d-d8de-4ea1-bf6d-bc37dd8e3265" data-name="Lineas"><polygon points="30.81 39.58 30.81 23.29 41.67 14.51 52.95 22.45 52.95 39.16 45.02 39.16 45.02 29.55 37.49 29.55 37.49 39.58 30.81 39.58" style="fill:#f0866a"/><path d="M28.72,25a.84.84,0,0,0-.84.84V40a.84.84,0,0,0,.84.84h9.19l.16,0L42.25,40a.84.84,0,1,0-.33-1.64L38.75,39V30.81h5V40a.84.84,0,0,0,.84.84h9.19l.16,0L58.13,40l.08,0,.16-.07.13-.09.11-.11.09-.13a.83.83,0,0,0,.09-.31.77.77,0,0,0,0-.08V27.46a.84.84,0,1,0-1.67,0v11l-2.51.5V23.28a.84.84,0,1,0-1.67,0V39.17H45.43V30a.84.84,0,0,0-.84-.84H37.91a.84.84,0,0,0-.84.84v9.19H29.55V25.79A.84.84,0,0,0,28.72,25Z" style="fill:#1d1d1b"/><path d="M65.91,24.84a.82.82,0,0,0,.22-.19l0,0h0a.84.84,0,0,0,.08-.19.31.31,0,0,0,0-.22.84.84,0,0,0,0-.21s0,0,0,0a.8.8,0,0,0-.05-.12A.58.58,0,0,0,66,23.5L66,23.44h0l-20-14.19h0a.83.83,0,0,0-.24-.11l-.06,0h-.12a.83.83,0,0,0-.21,0h0l-4.18.84,0,0-.17.07-.11.06h0L21.53,24.28a.84.84,0,0,0-.18,1.17.83.83,0,0,0,1.09.21.81.81,0,0,0,.42.13h2.51a.84.84,0,0,0,0-1.67h-.81l1.27-.94a.82.82,0,0,0,.38.1h2.51a.84.84,0,1,0,0-1.67H28l1.24-.92a.82.82,0,0,0,.35.08h2.51a.84.84,0,1,0,0-1.67h-.7l1.22-.9a.83.83,0,0,0,.32.06H35.4a.84.84,0,0,0,0-1.67h-.65L36,15.71a.82.82,0,0,0,.28.06h2.51a.84.84,0,0,0,0-1.67h-.6l1.2-.88a.81.81,0,0,0,.24,0h2.51a.82.82,0,0,0,.7-.4l18,12.79.13.06.09,0a.83.83,0,0,0,.27,0l.16,0,4.18-.84a.79.79,0,0,0,.13-.05Zm-4.4-.77L43.32,11.19l1.92-.38L63.43,23.68Z" style="fill:#1d1d1b"/><path d="M29.45,69.25H25.27a.84.84,0,1,0,0,1.67h4.18a.84.84,0,0,0,0-1.67Z" style="fill:#1d1d1b"/><path d="M37,54.21a.84.84,0,0,0,0-1.67H32.84a.84.84,0,0,0,0,1.67Z" style="fill:#1d1d1b"/><path d="M30.07,60.9H25.89a.84.84,0,1,0,0,1.67h4.18a.84.84,0,1,0,0-1.67Z" style="fill:#1d1d1b"/><path d="M13.67,57.55a3.43,3.43,0,0,1,.16-1.08.84.84,0,0,0-1.59-.53A5.1,5.1,0,0,0,12,57.55a4.52,4.52,0,0,0,1.14,3.14.84.84,0,1,0,1.24-1.12A2.87,2.87,0,0,1,13.67,57.55Z" style="fill:#1d1d1b"/><path d="M37.81,69.25H33.63a.84.84,0,0,0,0,1.67h4.18a.84.84,0,1,0,0-1.67Z" style="fill:#1d1d1b"/><path d="M21.09,69.25H17.85a.84.84,0,1,0,0,1.67h3.24a.84.84,0,1,0,0-1.67Z" style="fill:#1d1d1b"/><path d="M21.71,60.9H17.59a.82.82,0,0,0-.9.77.84.84,0,0,0,.77.9l.39,0h3.86a.84.84,0,0,0,0-1.67Z" style="fill:#1d1d1b"/><path d="M28.65,54.21a.84.84,0,1,0,0-1.67H24.46a.84.84,0,0,0,0,1.67Z" style="fill:#1d1d1b"/><path d="M20.28,54.21a.84.84,0,1,0,0-1.67H17.85a8.18,8.18,0,0,0-2,.29.84.84,0,1,0,.44,1.61,6.58,6.58,0,0,1,1.52-.23Z" style="fill:#1d1d1b"/><path d="M62.77,69.2a5.49,5.49,0,0,1-.62.05H58.7a.84.84,0,1,0,0,1.67h3.45a7,7,0,0,0,.84-.07.84.84,0,1,0-.22-1.66Z" style="fill:#1d1d1b"/><path d="M55.14,60.9H51a.84.84,0,0,0,0,1.67h4.18a.84.84,0,0,0,0-1.67Z" style="fill:#1d1d1b"/><path d="M67.57,63.83a.84.84,0,1,0-1.51.71,3.23,3.23,0,0,1,.28,1.37,3,3,0,0,1-.51,1.77.84.84,0,1,0,1.36,1A4.63,4.63,0,0,0,68,65.91,4.89,4.89,0,0,0,67.57,63.83Z" style="fill:#1d1d1b"/><path d="M54.52,69.25H50.34a.84.84,0,0,0,0,1.67h4.18a.84.84,0,1,0,0-1.67Z" style="fill:#1d1d1b"/><path d="M63.67,61.08a8,8,0,0,0-1.52-.18H59.32a.84.84,0,1,0,0,1.67h2.83a6.39,6.39,0,0,1,1.17.15l.18,0a.84.84,0,0,0,.17-1.65Z" style="fill:#1d1d1b"/><path d="M46.17,69.25H42a.84.84,0,1,0,0,1.67h4.18a.84.84,0,0,0,0-1.67Z" style="fill:#1d1d1b"/><path d="M38.43,60.9H34.25a.84.84,0,0,0,0,1.67h4.18a.84.84,0,0,0,0-1.67Z" style="fill:#1d1d1b"/><path d="M42.14,48.44a8,8,0,0,0-.06-1,.84.84,0,0,0-1.66.23,6.41,6.41,0,0,1,0,.8,5.49,5.49,0,0,1-.62,2.72.84.84,0,0,0,1.44.85A7.14,7.14,0,0,0,42.14,48.44Z" style="fill:#1d1d1b"/><path d="M46.78,60.9H42.6a.84.84,0,1,0,0,1.67h4.18a.84.84,0,1,0,0-1.67Z" style="fill:#1d1d1b"/><path d="M41.84,42.76l0-.06-.08,0-.15-.08-.15,0-.16,0-.16,0-.15,0-.15.08-.08,0,0,.06-.06,0-4.18,5a.84.84,0,0,0,1.28,1.07l3.54-4.24,3.54,4.24a.84.84,0,0,0,1.28-1.07l-4.18-5Z" style="fill:#1d1d1b"/></g></svg>